<?xml version="1.0" standalone="no"?>
<!DOCTYPE svg PUBLIC "-//W3C//DTD SVG 20010904//EN"
 "http://www.w3.org/TR/2001/REC-SVG-20010904/DTD/svg10.dtd">
<svg version="1.0" xmlns="http://www.w3.org/2000/svg"
 width="800.000000pt" height="600.000000pt" viewBox="0 0 800.000000 600.000000"
 preserveAspectRatio="xMidYMid meet">

<g transform="translate(0.000000,600.000000) scale(0.100000,-0.100000)"
fill="#000000" stroke="none">
<path d="M2530 5986 c19 -7 98 -39 175 -71 77 -32 163 -65 190 -75 28 -10 58
-21 68 -25 12 -5 17 -2 17 9 0 10 8 16 22 16 21 0 21 0 2 -14 -10 -8 -17 -16
-14 -18 9 -8 127 -58 135 -58 5 0 42 -13 84 -29 42 -17 120 -46 174 -66 53
-19 112 -42 130 -49 114 -50 260 -96 285 -90 l27 7 -25 -21 c-14 -12 -21 -21
-16 -22 5 0 1 -9 -9 -20 -15 -17 -16 -20 -3 -20 20 0 42 26 33 40 -3 5 0 10 8
10 22 0 41 27 25 33 -7 3 3 6 22 6 26 1 31 -2 20 -9 -9 -6 -10 -10 -3 -10 7 0
20 8 30 19 10 10 32 21 48 23 17 3 95 20 175 38 267 59 264 59 272 46 6 -8 8
-7 8 2 0 6 11 12 25 12 14 0 25 5 25 10 0 6 15 10 34 10 47 0 66 9 66 31 0 10
5 19 12 19 6 0 8 3 5 6 -4 4 -23 -6 -43 -21 -34 -26 -44 -28 -125 -28 -61 -1
-89 -5 -89 -13 0 -15 -70 -26 -120 -18 -25 4 -40 3 -40 -4 0 -6 6 -13 13 -15
6 -3 -4 -3 -23 0 -19 3 -45 12 -57 19 -12 8 -37 14 -55 14 -18 0 -40 5 -48 10
-9 6 -11 10 -3 10 7 0 10 7 6 16 -5 15 -20 16 -106 11 -55 -3 -124 -3 -153 0
-48 5 -54 8 -54 29 0 24 -1 24 -120 24 -73 0 -120 4 -120 10 0 6 -18 10 -39
10 -36 0 -40 3 -43 28 -3 27 -4 27 -75 28 -173 3 -163 2 -163 29 0 22 -4 25
-38 25 -35 0 -97 29 -63 30 11 0 11 3 1 16 -22 26 -52 38 -60 24 -6 -10 -15
-6 -34 14 -30 29 -46 33 -46 11 0 -11 -11 -15 -40 -15 -29 0 -40 4 -40 15 0
13 -23 15 -152 15 -138 -1 -150 -2 -118 -14z m183 -3 c-7 -2 -21 -2 -30 0 -10
3 -4 5 12 5 17 0 24 -2 18 -5z m147 -83 c-8 -5 -22 -10 -30 -10 -13 0 -13 1 0
10 8 5 22 10 30 10 13 0 13 -1 0 -10z m355 -158 c-3 -3 -11 0 -18 7 -9 10 -8
11 6 5 10 -3 15 -9 12 -12z m573 -69 c-10 -2 -28 -2 -40 0 -13 2 -5 4 17 4 22
1 32 -1 23 -4z m157 -23 c-3 -5 -10 -10 -16 -10 -5 0 -9 5 -9 10 0 6 7 10 16
10 8 0 12 -4 9 -10z"/>
<path d="M1750 5970 c-9 -6 -10 -10 -3 -10 6 0 15 5 18 10 8 12 4 12 -15 0z"/>
<path d="M6750 5915 c-16 -19 -1 -19 24 0 16 12 17 15 4 15 -8 0 -21 -7 -28
-15z"/>
<path d="M5585 5820 c-3 -5 -1 -10 4 -10 6 0 11 5 11 10 0 6 -2 10 -4 10 -3 0
-8 -4 -11 -10z"/>
<path d="M5538 5803 c-10 -2 -18 -8 -18 -13 0 -10 38 -1 46 11 5 9 1 10 -28 2z"/>
<path d="M4968 5763 c7 -3 16 -2 19 1 4 3 -2 6 -13 5 -11 0 -14 -3 -6 -6z"/>
<path d="M4652 5723 c-12 -2 -35 -11 -50 -20 l-27 -15 40 6 c22 3 63 12 90 20
l50 15 -40 -1 c-22 0 -50 -3 -63 -5z"/>
<path d="M4131 5676 c2 -2 29 -6 59 -9 34 -3 47 -2 35 3 -19 8 -103 14 -94 6z"/>
<path d="M4256 5670 c7 -7 19 -7 35 -1 23 9 22 10 -10 10 -24 1 -32 -2 -25 -9z"/>
<path d="M4655 5600 c-8 -13 5 -13 25 0 13 8 13 10 -2 10 -9 0 -20 -4 -23 -10z"/>
<path d="M4595 5560 c-3 -5 -1 -10 4 -10 6 0 11 5 11 10 0 6 -2 10 -4 10 -3 0
-8 -4 -11 -10z"/>
<path d="M4543 5518 c-13 -6 -23 -20 -23 -32 0 -17 -2 -18 -10 -6 -5 8 -12 11
-16 7 -4 -3 -1 -13 5 -21 10 -12 16 -13 26 -3 7 7 11 14 10 17 -5 9 8 26 30
38 25 14 7 14 -22 0z"/>
<path d="M3844 5478 l-19 -23 23 19 c21 18 27 26 19 26 -2 0 -12 -10 -23 -22z"/>
<path d="M4555 5491 c-3 -5 -1 -12 5 -16 5 -3 10 1 10 9 0 18 -6 21 -15 7z"/>
<path d="M3890 5479 c0 -5 5 -7 10 -4 6 3 10 8 10 11 0 2 -4 4 -10 4 -5 0 -10
-5 -10 -11z"/>
<path d="M3683 5456 c-44 -15 -51 -26 -17 -26 33 0 58 13 53 27 -3 7 -16 6
-36 -1z"/>
<path d="M4423 5462 c-19 -14 -23 -42 -5 -43 14 0 14 -2 2 -6 -8 -3 -17 -9
-20 -14 -3 -4 -154 -35 -335 -68 -548 -101 -910 -168 -1110 -206 -104 -19
-226 -40 -270 -46 -44 -6 -87 -14 -95 -19 -13 -6 -15 -35 -14 -176 1 -93 5
-535 9 -981 l8 -813 -42 0 -41 0 0 -39 c0 -37 2 -39 35 -43 19 -2 35 0 35 6 0
5 3 6 6 3 4 -4 1 -13 -6 -22 -7 -8 -9 -15 -6 -15 4 0 2 -9 -4 -20 -9 -16 -7
-24 5 -36 13 -14 15 -124 15 -998 l0 -983 113 -21 c61 -11 450 -82 862 -156
413 -75 845 -153 960 -174 116 -21 213 -37 218 -35 4 2 7 560 7 1239 l0 1234
70 0 70 0 0 35 0 35 -70 0 -70 0 0 1090 0 1090 28 -11 c215 -81 620 -245 630
-256 7 -7 29 -13 48 -13 32 0 34 2 34 35 0 32 -3 35 -37 40 -21 4 -168 59
-328 122 -159 64 -308 121 -330 128 l-40 12 -3 62 c-3 53 -5 61 -20 57 -9 -2
-54 -12 -99 -21 -75 -15 -84 -15 -120 0 -70 31 -80 33 -90 27z m297 -76 l0
-34 -55 21 c-57 23 -60 33 -10 40 65 9 65 9 65 -27z m-106 -47 l106 -41 0
-1100 0 -1100 -87 3 -88 3 -5 -187 c-3 -103 -3 -187 -1 -187 8 0 30 36 31 50
0 13 -1 13 -10 0 -7 -11 -10 3 -10 45 0 42 3 56 10 45 8 -12 10 -9 10 13 0 15
-4 27 -10 27 -5 0 -7 7 -4 15 4 8 10 12 15 9 5 -3 9 18 9 45 l0 51 70 0 70 0
0 -1215 0 -1215 -22 5 c-13 3 -212 39 -443 80 -1394 247 -1608 285 -1616 291
-9 5 -10 1182 -2 1737 l5 307 379 0 379 0 0 -120 c0 -100 -2 -120 -15 -120 -9
0 -15 9 -15 25 0 21 -5 25 -30 25 -29 0 -29 0 -33 -67 -2 -38 -4 3 -5 90 l-2
157 -25 0 -25 0 0 -154 0 -154 -30 -10 c-21 -8 -28 -16 -24 -26 3 -9 1 -16 -5
-16 -6 0 -11 11 -11 25 0 20 -5 25 -25 25 -24 0 -25 -2 -25 -70 0 -68 1 -70
25 -70 20 0 25 5 25 25 0 14 4 25 8 25 4 0 8 -12 7 -27 0 -26 3 -28 38 -28
l37 0 0 -70 c0 -38 -5 -205 -11 -371 -13 -348 -8 -386 56 -443 45 -39 69 -39
105 -1 49 52 50 95 11 302 -16 84 -32 185 -36 224 -6 71 -6 72 20 78 62 16
158 150 186 260 15 59 25 59 21 1 -4 -40 -2 -45 17 -45 23 0 22 -5 25 135 1
54 -1 60 -20 63 -20 3 -21 9 -23 115 0 62 -4 136 -7 165 l-6 52 176 0 176 0 0
34 c0 39 13 53 55 58 30 3 30 3 33 72 2 58 -1 75 -18 97 -11 16 -20 36 -20 46
0 44 -12 63 -39 62 -18 -1 -20 -3 -8 -6 14 -4 16 -8 6 -19 -6 -7 -8 -21 -5
-30 4 -9 -3 -27 -17 -43 l-23 -28 -19 26 c-11 14 -19 30 -17 35 2 5 0 22 -3
37 -6 25 -11 29 -38 28 -18 -1 -25 -3 -16 -6 21 -5 18 -67 -5 -92 -29 -32 -21
-51 24 -51 l40 0 0 -55 0 -55 -40 0 c-28 0 -40 -4 -40 -14 0 -12 -22 -15 -105
-18 -105 -3 -105 -3 -110 22 -24 116 -57 370 -62 483 -5 123 -4 137 10 137 17
0 24 26 8 32 -5 2 -2 53 6 113 15 107 16 111 40 110 22 0 28 10 58 89 19 49
32 93 30 97 -3 4 -26 10 -53 14 -26 3 -51 7 -56 8 -4 1 -23 -41 -42 -93 -30
-83 -32 -96 -19 -106 13 -10 14 -24 2 -115 l-13 -104 -32 -3 -32 -3 0 90 c0
74 3 91 15 91 12 0 15 17 15 95 0 61 -4 95 -11 95 -7 0 -10 79 -7 258 3 244 4
260 26 307 26 56 66 103 100 116 16 6 47 2 102 -14 72 -20 80 -24 81 -47 2
-23 2 -24 6 -2 5 26 5 26 71 7 48 -15 63 -14 204 5 217 29 218 30 218 49 0 13
-29 25 -132 53 -212 58 -197 56 -362 31 -195 -30 -220 -37 -267 -80 -89 -80
-109 -166 -109 -465 0 -139 -4 -218 -10 -218 -5 0 -10 -18 -10 -40 0 -33 -3
-40 -20 -40 -13 0 -20 7 -20 20 0 11 -4 21 -10 22 -32 4 -34 1 -36 -57 -2 -67
8 -95 34 -94 14 0 14 2 -3 9 -19 8 -19 9 3 9 17 1 22 7 22 26 0 16 6 25 15 25
10 0 15 -10 15 -29 0 -17 5 -33 10 -36 6 -3 10 -44 10 -91 0 -77 -2 -84 -20
-84 -13 0 -20 -7 -20 -20 0 -13 7 -20 20 -20 18 0 20 -7 20 -88 0 -49 3 -197
7 -330 l6 -242 -380 0 -380 0 -6 168 c-8 209 2 1775 11 1783 4 4 72 18 152 33
902 164 1430 260 1500 272 46 9 88 18 92 20 4 3 8 -4 8 -14 0 -24 15 -30 55
-22 23 4 30 11 29 28 0 12 5 22 12 22 7 0 60 -18 118 -41z m-1105 -1721 c7
-73 25 -218 42 -322 16 -104 29 -193 29 -198 0 -4 -31 -8 -70 -8 l-70 0 0 330
0 330 28 0 28 0 13 -132z m381 -328 c0 -5 -4 -10 -10 -10 -5 0 -10 5 -10 10 0
6 5 10 10 10 6 0 10 -4 10 -10z m120 -105 l0 -55 -45 0 -45 0 0 40 c0 25 5 40
13 41 10 0 10 2 0 6 -28 11 -11 23 32 23 l45 0 0 -55z m-417 -193 c3 -16 9
-86 13 -155 l7 -127 -39 -2 c-128 -5 -134 -4 -134 14 0 16 10 18 75 18 66 0
75 2 75 18 0 12 -8 18 -22 19 -13 0 -47 1 -75 2 l-53 1 0 120 0 120 74 0 c73
0 74 0 79 -28z m-193 -272 c0 -13 -7 -20 -19 -20 -14 0 -18 5 -14 20 3 11 12
20 19 20 8 0 14 -9 14 -20z m170 -232 c-25 -68 -66 -127 -114 -163 -58 -44
-66 -33 -66 92 0 160 -5 152 104 155 107 3 108 2 76 -84z m-204 20 c-18 -145
-19 -175 -3 -209 8 -19 18 -74 22 -123 3 -50 18 -144 31 -210 41 -197 34 -259
-34 -304 -21 -13 -24 -12 -61 24 -57 58 -66 112 -52 330 6 96 11 257 11 359
l0 185 46 0 47 0 -7 -52z"/>
<path d="M4100 5200 l-45 -7 53 -1 c29 -1 52 2 52 8 0 6 -3 9 -7 8 -5 0 -28
-4 -53 -8z"/>
<path d="M4178 5193 c6 -2 18 -2 25 0 6 3 1 5 -13 5 -14 0 -19 -2 -12 -5z"/>
<path d="M3880 5164 c-39 -11 -41 -13 -17 -15 55 -5 62 -4 59 9 -1 9 9 11 40
6 24 -4 41 -5 38 -2 -12 13 -79 14 -120 2z m37 -10 c-3 -3 -12 -4 -19 -1 -8 3
-5 6 6 6 11 1 17 -2 13 -5z"/>
<path d="M4048 5173 c6 -2 18 -2 25 0 6 3 1 5 -13 5 -14 0 -19 -2 -12 -5z"/>
<path d="M3762 5028 l2 -113 3 103 c2 56 8 102 13 102 6 0 10 5 10 10 0 6 -7
10 -15 10 -13 0 -15 -18 -13 -112z"/>
<path d="M4275 5080 c-3 -5 -1 -10 4 -10 6 0 11 5 11 10 0 6 -2 10 -4 10 -3 0
-8 -4 -11 -10z"/>
<path d="M3928 5063 c7 -3 16 -2 19 1 4 3 -2 6 -13 5 -11 0 -14 -3 -6 -6z"/>
<path d="M4010 5040 c19 -13 30 -13 30 0 0 6 -10 10 -22 10 -19 0 -20 -2 -8
-10z"/>
<path d="M3783 4985 c0 -33 2 -45 4 -27 2 18 2 45 0 60 -2 15 -4 0 -4 -33z"/>
<path d="M3764 4530 c0 -118 2 -167 3 -107 2 59 2 155 0 215 -1 59 -3 10 -3
-108z"/>
<path d="M4254 4677 c-3 -8 -16 -12 -32 -9 -54 8 -166 -15 -206 -41 -20 -14
-58 -29 -83 -33 -30 -4 -55 -15 -69 -31 l-22 -24 -5 23 c-2 13 -6 -20 -7 -72
-2 -75 -5 -87 -10 -55 -5 27 -6 17 -4 -35 2 -45 0 -67 -5 -55 -7 18 -8 17 -13
-8 -4 -20 -1 -27 10 -27 27 0 416 40 440 45 22 5 22 7 22 170 0 154 -3 184
-16 152z m-220 -62 c-8 -13 -13 -28 -10 -33 3 -5 0 -9 -7 -9 -7 0 -13 8 -13
18 0 10 2 16 5 14 2 -3 10 4 18 15 20 29 27 25 7 -5z m51 4 c-22 -11 -29 -18
-17 -15 33 7 52 -3 52 -26 0 -10 -5 -16 -10 -13 -6 4 -7 11 -4 17 4 7 -5 9
-28 6 -44 -5 -46 18 -2 37 46 21 53 15 9 -6z m110 -9 c19 0 37 -5 41 -12 5 -8
2 -9 -10 -5 -10 4 -33 7 -52 7 -27 0 -32 3 -27 17 4 11 8 12 11 5 2 -7 19 -12
37 -12z m35 -42 c0 -6 -6 -5 -15 2 -8 7 -15 14 -15 16 0 2 7 1 15 -2 8 -4 15
-11 15 -16z m-165 -7 c-9 -8 -36 -10 -30 -2 2 4 11 8 20 8 8 0 13 -3 10 -6z
m-6 -57 c-14 -13 -15 -13 -13 8 1 13 3 25 3 28 1 2 6 -1 13 -8 10 -9 9 -16 -3
-28z m65 21 c-8 -20 10 -19 26 0 7 9 15 13 17 11 3 -2 -4 -13 -15 -24 -17 -17
-23 -18 -32 -7 -7 8 -9 19 -5 25 9 15 15 12 9 -5z m-53 -75 l39 0 0 -50 0 -50
-41 0 -40 0 3 38 c3 34 6 37 38 41 l35 5 -40 5 c-25 4 -40 11 -41 21 0 9 1 10
3 3 3 -8 21 -13 44 -13z m140 6 c2 -3 3 -25 1 -50 l-4 -46 -40 0 -39 0 3 38
c3 34 6 37 38 41 l35 5 -40 6 -40 7 41 2 c22 0 43 -1 45 -3z"/>
<path d="M4096 3702 c16 -10 11 -43 -9 -72 -24 -35 -22 -40 18 -40 35 0 35 0
35 -45 l0 -45 -42 0 c-33 -1 -39 -3 -26 -10 9 -6 49 -7 92 -3 71 6 76 7 76 30
0 13 -6 32 -12 43 -10 16 -9 28 4 62 27 71 29 85 8 43 l-19 -40 -1 30 c0 17
-4 36 -9 44 -5 8 -7 -4 -4 -33 3 -27 1 -51 -6 -59 -6 -8 -12 -26 -13 -41 -3
-40 -18 -31 -18 11 0 20 -7 44 -15 53 -8 9 -15 30 -17 48 -2 27 -6 32 -28 32
-14 0 -20 -4 -14 -8z"/>
<path d="M4171 3665 c1 -19 18 -51 18 -35 0 8 -4 22 -9 30 -5 8 -9 11 -9 5z"/>
<path d="M4083 3573 c9 -2 25 -2 35 0 9 3 1 5 -18 5 -19 0 -27 -2 -17 -5z"/>
<path d="M3818 3213 c12 -2 30 -2 40 0 9 3 -1 5 -23 4 -22 0 -30 -2 -17 -4z"/>
<path d="M4542 2643 l1 -48 7 45 c6 42 6 43 12 15 l5 -30 2 33 c1 22 -3 32
-14 32 -11 0 -15 -11 -13 -47z"/>
<path d="M4530 2424 c0 -14 3 -14 15 -4 8 7 15 14 15 16 0 2 -7 4 -15 4 -8 0
-15 -7 -15 -16z"/>
<path d="M4530 2290 c0 -60 3 -110 8 -110 4 0 6 34 5 76 -2 63 0 75 12 70 9
-3 15 1 15 9 0 9 -6 12 -15 9 -12 -5 -14 -1 -11 17 3 13 5 26 5 29 1 3 6 -2
11 -10 8 -13 10 -12 10 3 0 10 -8 17 -20 17 -19 0 -20 -7 -20 -110z"/>
<path d="M4556 2215 c-3 -8 -1 -15 4 -15 6 0 10 7 10 15 0 8 -2 15 -4 15 -2 0
-6 -7 -10 -15z"/>
<path d="M4562 2110 c0 -14 2 -19 5 -12 2 6 2 18 0 25 -3 6 -5 1 -5 -13z"/>
<path d="M4520 2095 c0 -14 4 -25 9 -25 5 0 9 11 9 25 0 14 -4 25 -9 25 -5 0
-9 -11 -9 -25z"/>
<path d="M4526 2034 c-17 -43 -1 -106 19 -74 3 6 1 10 -6 10 -8 0 -10 12 -5
40 6 41 3 52 -8 24z"/>
<path d="M4013 1878 c1 -7 8 -16 16 -19 11 -4 10 -8 -3 -21 -9 -9 -16 -23 -16
-30 0 -8 4 -7 11 5 11 19 44 23 54 7 3 -5 11 -10 16 -10 6 0 7 5 4 10 -7 11
27 15 83 11 20 -1 32 3 32 10 0 7 9 3 21 -10 12 -12 18 -25 14 -29 -4 -4 -10
-1 -12 6 -3 7 -20 12 -41 11 -20 0 -31 -3 -24 -6 6 -2 10 -9 6 -14 -5 -8 6
-10 63 -13 10 -1 20 9 25 24 l7 25 -1 -25 c-1 -58 0 -60 40 -59 35 1 35 2 8 8
-29 6 -40 28 -29 58 5 11 10 8 20 -13 7 -16 11 -21 8 -11 -4 14 -1 16 15 7 19
-10 36 -7 78 13 18 9 25 8 32 -3 7 -10 10 -11 10 -2 0 6 7 12 15 12 18 0 20
-36 3 -43 -10 -4 -9 -8 2 -16 8 -6 18 -11 21 -11 12 0 16 49 6 59 -8 8 -7 11
1 11 7 0 12 5 12 11 0 6 -7 8 -16 5 -8 -3 -12 -2 -9 4 4 6 -8 10 -27 10 -19 0
-38 4 -43 9 -6 5 -29 11 -52 14 -35 4 -41 2 -37 -12 5 -13 4 -13 -6 2 -13 21
-34 23 -26 2 3 -8 1 -15 -4 -15 -6 0 -10 6 -10 14 0 9 -25 15 -92 20 -138 9
-178 8 -175 -6z m216 -14 c8 -7 -63 -2 -94 7 -20 5 -9 6 30 2 33 -3 62 -7 64
-9z m168 -10 c-3 -3 -12 -4 -19 -1 -8 3 -5 6 6 6 11 1 17 -2 13 -5z m-50 -46
c-3 -8 -6 -5 -6 6 -1 11 2 17 5 13 3 -3 4 -12 1 -19z"/>
<path d="M4538 1863 c7 -3 16 -2 19 1 4 3 -2 6 -13 5 -11 0 -14 -3 -6 -6z"/>
<path d="M4045 1810 c3 -5 8 -10 11 -10 2 0 4 5 4 10 0 6 -5 10 -11 10 -5 0
-7 -4 -4 -10z"/>
<path d="M4018 1783 c7 -3 16 -2 19 1 4 3 -2 6 -13 5 -11 0 -14 -3 -6 -6z"/>
<path d="M4050 1780 c0 -5 5 -10 11 -10 5 0 7 5 4 10 -3 6 -8 10 -11 10 -2 0
-4 -4 -4 -10z"/>
<path d="M4148 1773 c6 -2 18 -2 25 0 6 3 1 5 -13 5 -14 0 -19 -2 -12 -5z"/>
<path d="M4555 1770 c-3 -5 -1 -10 4 -10 6 0 11 5 11 10 0 6 -2 10 -4 10 -3 0
-8 -4 -11 -10z"/>
<path d="M4198 1763 c7 -3 16 -2 19 1 4 3 -2 6 -13 5 -11 0 -14 -3 -6 -6z"/>
<path d="M4448 1733 c12 -2 32 -2 45 0 12 2 2 4 -23 4 -25 0 -35 -2 -22 -4z"/>
<path d="M3433 1042 c-29 -8 -53 -18 -53 -22 0 -9 97 -23 109 -15 5 3 11 0 13
-7 4 -10 22 -8 79 6 41 10 79 22 84 25 10 5 -123 30 -160 29 -11 0 -44 -7 -72
-16z"/>
<path d="M3588 5419 c-10 -5 -18 -19 -18 -29 0 -11 -7 -20 -15 -20 -24 0 -95
-31 -95 -42 0 -6 6 -5 15 2 9 7 26 10 42 6 19 -4 23 -4 14 3 -10 7 -6 11 18
16 17 3 33 11 36 16 4 5 15 9 26 9 24 0 25 17 2 23 -17 4 -17 5 0 6 19 1 24
21 5 21 -7 0 -21 -5 -30 -11z"/>
<path d="M5430 5099 c0 -5 5 -7 10 -4 6 3 10 8 10 11 0 2 -4 4 -10 4 -5 0 -10
-5 -10 -11z"/>
<path d="M7623 4510 l-32 -29 72 6 c40 3 81 9 92 13 18 6 16 9 -12 24 -47 24
-83 20 -120 -14z"/>
<path d="M7815 4500 c15 -6 16 -9 4 -9 -9 -1 -114 -10 -235 -22 -120 -11 -239
-18 -264 -15 -34 4 -40 3 -25 -4 14 -8 1 -9 -50 -5 -50 3 -66 2 -55 -6 11 -8
5 -9 -25 -5 -36 4 -600 -39 -652 -50 -25 -5 -32 -34 -8 -34 21 0 1001 89 1056
96 40 5 47 3 51 -14 3 -11 20 -28 38 -37 40 -21 85 -12 107 21 12 19 18 22 25
12 6 -9 8 -5 6 12 -2 21 2 26 25 28 35 4 40 42 5 41 -22 0 -22 -1 -3 -9z"/>
<path d="M7488 4473 c6 -2 18 -2 25 0 6 3 1 5 -13 5 -14 0 -19 -2 -12 -5z"/>
<path d="M7388 4463 c7 -3 16 -2 19 1 4 3 -2 6 -13 5 -11 0 -14 -3 -6 -6z"/>
<path d="M7633 4266 c-15 -13 -26 -27 -23 -29 3 -3 48 -2 100 2 52 5 87 9 77
10 -11 0 -30 10 -44 21 -34 27 -76 25 -110 -4z"/>
<path d="M7820 4241 c-19 -11 -385 -35 -398 -27 -6 3 -13 2 -17 -4 -3 -5 -11
-10 -16 -10 -6 0 -7 5 -4 10 3 6 1 10 -4 10 -11 0 -17 -163 -14 -352 1 -45 -3
-78 -8 -78 -6 0 -7 -5 -4 -10 4 -6 7 -31 7 -56 l0 -45 124 7 c90 5 124 4 124
-5 0 -24 40 -51 76 -51 20 0 33 -4 29 -10 -3 -6 1 -7 9 -4 9 3 13 10 10 15 -3
5 -1 9 5 9 5 0 18 14 28 30 13 22 25 30 45 30 42 0 39 35 -3 38 -17 1 -43 11
-57 22 -14 12 -40 20 -61 20 -36 0 -81 -22 -81 -41 0 -5 45 -9 102 -9 56 0 99
-2 97 -4 -2 -2 -100 -7 -216 -11 -153 -5 -213 -4 -213 4 0 6 7 11 16 11 13 0
15 7 10 38 -12 72 -13 93 -4 98 16 10 9 54 -9 55 -34 3 82 17 144 18 56 1 64
-2 91 -29 44 -44 83 -41 133 10 22 22 49 40 59 40 14 0 20 7 20 23 0 14 -3 18
-8 10 -11 -18 -452 -43 -452 -26 0 7 6 10 14 7 17 -7 28 62 14 90 -6 10 -7 33
-3 52 3 21 2 34 -5 34 -5 0 -10 6 -10 14 0 10 19 16 68 20 140 12 139 12 161
-15 11 -15 19 -28 17 -30 -3 -2 15 -5 38 -7 46 -3 90 22 101 58 4 14 15 20 36
20 22 0 29 5 29 20 0 23 0 22 -20 11z m-433 -143 c-3 -8 -6 -5 -6 6 -1 11 2
17 5 13 3 -3 4 -12 1 -19z"/>
<path d="M7498 4223 c7 -3 16 -2 19 1 4 3 -2 6 -13 5 -11 0 -14 -3 -6 -6z"/>
<path d="M7776 4175 c-3 -8 -1 -15 4 -15 6 0 10 7 10 15 0 8 -2 15 -4 15 -2 0
-6 -7 -10 -15z"/>
<path d="M6700 4164 c-8 -1 -59 -6 -112 -9 -87 -6 -98 -9 -98 -25 0 -17 6 -18
48 -15 26 3 77 7 115 11 57 5 67 8 67 25 0 10 -1 18 -2 18 -2 -1 -10 -3 -18
-5z"/>
<path d="M7636 4019 c-14 -11 -26 -25 -26 -30 0 -10 89 -10 135 0 l30 7 -35
22 c-44 27 -70 28 -104 1z"/>
<path d="M6635 3923 c-108 -5 -145 -13 -145 -30 0 -14 14 -15 118 -8 64 3 119
8 121 10 8 8 -9 35 -21 33 -7 -1 -40 -3 -73 -5z"/>
<path d="M7508 3723 c12 -2 32 -2 45 0 12 2 2 4 -23 4 -25 0 -35 -2 -22 -4z"/>
<path d="M6568 3683 c-71 -4 -78 -6 -78 -25 0 -19 4 -20 53 -14 28 3 82 6 120
6 60 0 67 2 67 20 0 17 -6 20 -42 18 -24 -1 -78 -4 -120 -5z"/>
<path d="M7359 3633 c-1 -21 -1 -110 -1 -197 0 -99 -3 -154 -9 -145 -7 11 -9
11 -9 -3 0 -10 4 -18 9 -18 9 0 4 -131 -5 -160 -3 -9 2 -8 14 5 10 11 18 29
16 41 -2 20 4 21 109 27 l112 6 25 -31 c22 -26 33 -31 70 -31 37 0 48 5 70 32
18 20 35 31 53 31 20 0 27 5 27 20 0 16 -6 20 -32 19 -31 -1 -32 -1 -8 -9 14
-5 -73 -8 -200 -8 -124 0 -216 3 -206 7 18 7 18 8 3 14 -9 3 -17 12 -16 19 0
10 2 10 6 1 7 -19 22 -15 18 5 -2 9 -4 17 -5 17 -1 0 -3 15 -4 33 -1 17 1 32
4 32 4 0 7 7 7 15 0 8 -5 15 -11 15 -6 0 -4 5 4 10 12 8 13 11 1 19 -11 7 -11
9 0 14 8 3 3 6 -11 8 -30 3 94 16 168 18 37 1 52 -3 52 -12 0 -19 33 -47 56
-48 15 -1 14 -3 -6 -9 -21 -7 -21 -8 -5 -9 33 -1 106 37 112 59 4 15 14 20 39
20 26 0 34 4 34 18 0 15 -9 16 -102 11 -175 -11 -356 -10 -364 2 -4 8 1 9 16
4 21 -7 22 -5 16 31 -8 54 -8 53 0 112 7 51 6 52 -20 52 -23 0 -26 -4 -27 -37z
m18 -5 c-3 -8 -6 -5 -6 6 -1 11 2 17 5 13 3 -3 4 -12 1 -19z"/>
<path d="M7632 3510 c-33 -31 -28 -44 16 -36 20 3 56 6 79 6 48 0 51 19 7 39
-38 17 -78 13 -102 -9z"/>
<path d="M7538 3473 c12 -2 32 -2 45 0 12 2 2 4 -23 4 -25 0 -35 -2 -22 -4z"/>
<path d="M6523 3443 c-21 -3 -33 -10 -33 -19 0 -12 20 -14 117 -12 103 3 118
5 121 21 3 15 -6 17 -85 15 -48 0 -103 -3 -120 -5z"/>
<path d="M7636 3259 c-14 -11 -26 -25 -26 -30 0 -5 36 -9 80 -9 44 0 80 4 80
9 0 18 -53 51 -80 51 -15 0 -39 -9 -54 -21z"/>
<path d="M6490 3190 c0 -20 5 -21 117 -18 102 3 116 5 119 21 2 15 -9 17 -117
17 -113 0 -119 -1 -119 -20z"/>
<path d="M7390 3160 c0 -5 5 -10 10 -10 6 0 10 5 10 10 0 6 -4 10 -10 10 -5 0
-10 -4 -10 -10z"/>
<path d="M7340 3084 c-14 -8 -18 -13 -10 -11 8 2 20 -3 26 -12 10 -12 12 -10
12 12 0 15 -1 27 -2 27 0 -1 -12 -8 -26 -16z"/>
<path d="M6848 3073 c7 -3 16 -2 19 1 4 3 -2 6 -13 5 -11 0 -14 -3 -6 -6z"/>
<path d="M6893 3073 c9 -2 25 -2 35 0 9 3 1 5 -18 5 -19 0 -27 -2 -17 -5z"/>
<path d="M6765 3050 c-16 -4 -22 -8 -12 -9 20 -1 23 -17 5 -23 -17 -6 14 -38
36 -38 9 0 16 -6 16 -12 0 -9 4 -8 10 2 6 10 10 11 10 3 0 -7 5 -13 11 -13 5
0 7 5 4 10 -5 9 15 15 38 11 4 0 7 4 7 9 0 6 14 10 30 10 30 0 43 -23 18 -33
-8 -4 -7 -6 3 -6 9 -1 19 -7 22 -15 8 -19 136 -20 172 -2 18 9 22 16 13 19
-11 4 -11 6 0 6 7 1 10 6 7 11 -4 6 7 10 24 10 21 0 31 5 31 15 0 9 6 12 16 8
11 -4 12 -8 4 -13 -8 -5 -7 -9 4 -13 10 -4 16 -1 16 7 0 11 20 26 35 26 6 0
-4 -42 -11 -49 -4 -3 -4 2 -1 12 4 11 3 16 -3 12 -19 -12 -11 -38 9 -32 12 3
22 -1 26 -10 4 -12 0 -14 -15 -10 -11 3 -20 1 -20 -4 0 -5 21 -8 48 -8 26 1
37 4 25 6 -13 2 -23 6 -23 8 0 10 24 55 29 55 3 0 13 4 20 9 12 8 11 13 -10
30 -23 19 -36 20 -294 19 -148 0 -283 -4 -300 -8z m249 -9 c6 -9 -73 -5 -82 4
-3 3 13 5 36 5 22 0 43 -4 46 -9z m159 2 c-18 -2 -48 -2 -65 0 -18 2 -4 4 32
4 36 0 50 -2 33 -4z m171 -1 c3 -5 -8 -6 -25 -4 -16 2 -29 6 -29 8 0 8 49 4
54 -4z m9 -29 c-7 -2 -19 -2 -25 0 -7 3 -2 5 12 5 14 0 19 -2 13 -5z m-239
-29 c25 -10 19 -34 -9 -34 -14 0 -25 4 -25 9 0 5 9 7 20 4 27 -7 25 5 -2 17
-13 5 -18 9 -11 9 6 1 18 -2 27 -5z m-86 -31 c-10 -2 -28 -2 -40 0 -13 2 -5 4
17 4 22 1 32 -1 23 -4z"/>
<path d="M7170 2970 c0 -5 7 -7 15 -4 8 4 15 8 15 10 0 2 -7 4 -15 4 -8 0 -15
-4 -15 -10z"/>
<path d="M7340 2971 c0 -5 7 -11 15 -15 9 -3 15 0 15 9 0 8 -7 15 -15 15 -8 0
-15 -4 -15 -9z"/>
<path d="M6788 2943 c12 -2 30 -2 40 0 9 3 -1 5 -23 4 -22 0 -30 -2 -17 -4z"/>
<path d="M6334 855 c-4 -8 -3 -31 1 -51 4 -25 3 -34 -5 -29 -5 3 -8 10 -6 14
3 4 -8 15 -25 25 -25 15 -30 15 -35 3 -3 -9 -1 -32 5 -54 14 -50 14 -56 -2
-41 -8 7 -12 20 -9 30 7 28 -36 10 -47 -21 -9 -25 -9 -25 -10 -3 -1 13 -5 20
-11 17 -6 -4 -8 -10 -5 -15 8 -13 -18 -18 -38 -8 -11 6 -23 6 -30 0 -22 -17
-65 -23 -70 -9 -4 8 -6 7 -6 -3 -1 -19 44 -41 57 -28 10 10 42 0 42 -13 0 -5
7 -9 15 -9 8 0 15 5 15 11 0 5 -4 7 -10 4 -5 -3 -10 -2 -10 4 0 16 38 33 45
20 4 -6 4 -13 1 -16 -3 -4 -6 0 -7 8 -1 8 -4 3 -8 -11 -5 -20 -14 -26 -41 -28
-28 -2 -32 0 -20 8 12 9 9 10 -12 6 -16 -4 -43 0 -63 8 -19 8 -35 11 -35 7 0
-20 55 -42 127 -52 43 -5 108 -15 144 -21 101 -16 274 -16 274 0 0 10 60 40
83 42 1 0 2 11 2 24 0 21 -7 26 -50 35 -28 6 -61 11 -74 11 -14 0 -27 9 -33
23 -6 12 -32 46 -58 75 -47 52 -80 66 -91 37z m-103 -142 c-12 -20 -14 -14 -5
12 4 9 9 14 11 11 3 -2 0 -13 -6 -23z m-87 1 c16 -6 12 -24 -5 -24 -6 0 -8 4
-5 9 4 5 0 12 -6 14 -7 3 -10 6 -6 6 3 1 13 -2 22 -5z m-54 -24 c0 -5 -2 -10
-4 -10 -3 0 -8 5 -11 10 -3 6 -1 10 4 10 6 0 11 -4 11 -10z m198 3 c-1 -5 3
-18 10 -30 13 -23 12 -23 -55 -23 -39 0 -63 4 -55 8 7 5 33 7 57 5 42 -4 59 7
35 22 -5 3 -10 10 -10 16 0 5 5 9 10 9 6 0 9 -3 8 -7z m-63 -13 c3 -5 1 -10
-4 -10 -6 0 -11 5 -11 10 0 6 2 10 4 10 3 0 8 -4 11 -10z"/>
<path d="M6306 827 c3 -10 9 -15 12 -12 3 3 0 11 -7 18 -10 9 -11 8 -5 -6z"/>
<path d="M6682 366 c-44 -31 -55 -45 -17 -21 52 32 70 45 60 45 -6 -1 -25 -11
-43 -24z"/>
<path d="M6595 310 c-3 -6 1 -7 9 -4 18 7 21 14 7 14 -6 0 -13 -4 -16 -10z"/>
<path d="M6549 279 l-24 -20 28 17 c15 9 27 18 27 20 0 8 -8 4 -31 -17z"/>
<path d="M6485 240 c-16 -11 -25 -20 -20 -20 10 0 64 39 55 40 -3 0 -18 -9
-35 -20z"/>
</g>
</svg>
