<?xml version="1.0" standalone="no"?>
<!DOCTYPE svg PUBLIC "-//W3C//DTD SVG 20010904//EN"
 "http://www.w3.org/TR/2001/REC-SVG-20010904/DTD/svg10.dtd">
<svg version="1.0" xmlns="http://www.w3.org/2000/svg"
 width="1200.000000pt" height="801.000000pt" viewBox="0 0 1200.000000 801.000000"
 preserveAspectRatio="xMidYMid meet">

<g transform="translate(0.000000,801.000000) scale(0.100000,-0.100000)"
fill="#000000" stroke="none">
<path d="M0 7270 c0 -411 4 -740 9 -740 4 0 18 21 29 48 22 49 65 130 79 147
8 10 30 63 41 100 5 18 12 28 38 58 6 7 19 30 28 52 10 22 22 47 27 55 13 22
36 70 49 108 8 20 19 32 31 32 12 0 21 10 25 26 7 28 39 66 52 62 4 -2 22 26
40 61 17 35 32 58 32 50 1 -9 7 -6 20 9 10 13 17 29 14 36 -3 8 6 23 20 34 14
11 26 24 26 30 0 5 14 15 30 22 32 13 38 25 18 34 -10 5 -9 8 2 13 8 3 29 20
45 38 86 90 145 156 145 163 0 4 16 16 37 27 20 11 58 41 84 67 40 41 52 48
87 48 46 0 141 55 142 81 0 9 9 24 21 35 17 16 22 16 29 4 7 -11 10 -8 10 13
l0 27 -605 0 -605 0 0 -740z"/>
<path d="M1221 7983 c0 -16 3 -22 6 -15 2 6 9 10 14 6 5 -3 9 4 9 15 0 12 -7
21 -15 21 -10 0 -15 -9 -14 -27z"/>
<path d="M1260 7999 c0 -5 4 -29 10 -52 12 -54 240 -1196 251 -1262 5 -27 13
-66 19 -85 9 -34 9 -33 4 10 -5 43 -4 44 11 25 16 -20 16 -20 12 3 -4 19 3 26
54 50 32 15 59 32 59 39 0 6 18 30 40 52 22 22 40 45 40 51 0 6 19 27 42 48
23 20 55 49 71 65 16 15 37 27 47 27 10 0 25 11 34 24 9 14 35 33 59 44 23 10
49 25 57 33 31 28 80 59 94 59 8 0 18 5 21 11 4 6 36 24 71 41 35 17 64 34 64
37 0 4 16 14 36 21 20 8 40 22 45 32 5 10 20 18 32 18 27 0 120 44 137 65 7 8
18 15 24 15 7 0 21 8 32 18 35 31 83 62 95 62 12 0 80 29 121 51 10 5 25 9 33
9 8 0 23 4 33 9 9 5 44 21 77 36 33 14 73 32 88 40 16 8 51 15 78 15 36 0 49
4 49 14 0 9 15 17 39 21 27 4 41 13 44 26 4 14 14 19 41 19 20 0 36 5 36 11 0
8 24 9 80 4 70 -6 80 -5 80 9 0 13 13 16 80 16 44 0 80 4 80 9 0 4 54 14 120
21 66 7 120 17 120 22 0 5 24 9 53 8 28 0 90 4 137 9 107 13 210 4 210 -17 0
-12 12 -13 78 -7 42 4 80 12 83 17 4 7 18 4 38 -8 24 -14 34 -16 39 -7 5 8 13
9 22 3 20 -13 60 -13 60 0 0 6 16 10 35 10 40 0 116 28 128 47 4 7 15 13 23
13 9 0 22 6 29 14 8 7 32 16 55 20 23 3 51 15 63 26 31 30 65 26 70 -7 2 -16
5 2 6 40 l1 67 -1895 0 c-1325 0 -1895 -3 -1895 -11z"/>
<path d="M5052 7840 c0 -14 2 -19 5 -12 2 6 2 18 0 25 -3 6 -5 1 -5 -13z"/>
<path d="M5558 4853 c7 -3 16 -2 19 1 4 3 -2 6 -13 5 -11 0 -14 -3 -6 -6z"/>
<path d="M5680 4815 c19 -7 42 -13 50 -13 8 0 -1 6 -20 13 -19 7 -42 13 -50
13 -8 0 1 -6 20 -13z"/>
<path d="M6538 4553 c7 -3 16 -2 19 1 4 3 -2 6 -13 5 -11 0 -14 -3 -6 -6z"/>
<path d="M4778 4448 c-7 -7 -17 -13 -23 -13 -24 -1 -95 -29 -95 -37 0 -5 -4
-7 -8 -4 -4 2 -21 -1 -37 -9 -17 -7 -54 -21 -83 -30 -32 -10 -50 -21 -46 -27
4 -7 2 -8 -5 -4 -6 4 -34 0 -62 -9 -49 -16 -50 -18 -33 -36 12 -14 20 -16 25
-8 4 8 13 1 23 -19 20 -39 20 -48 1 -32 -12 10 -15 10 -15 -4 0 -9 5 -16 10
-16 6 0 10 -4 10 -10 0 -5 -4 -10 -8 -10 -11 0 -35 51 -28 58 10 9 -46 53 -61
48 -8 -3 -19 -6 -24 -6 -6 0 -8 -4 -5 -9 4 -5 -2 -7 -12 -4 -11 2 -25 -1 -33
-9 -8 -7 -21 -14 -30 -14 -38 -3 -418 -148 -412 -157 3 -6 1 -7 -6 -3 -12 8
-191 -53 -191 -64 0 -8 212 -100 231 -100 8 0 120 41 249 91 129 51 273 107
320 125 47 18 130 50 185 72 55 21 173 67 263 102 105 41 158 66 149 71 -22
13 -211 79 -224 79 -6 0 -18 -6 -25 -12z m23 -38 c6 0 7 6 4 13 -4 6 5 -1 19
-18 31 -35 32 -42 9 -47 -18 -4 -54 41 -52 65 0 9 2 9 6 0 2 -7 9 -13 14 -13z
m-45 2 c17 -11 46 -71 39 -82 -10 -17 -35 2 -55 40 -22 43 -15 63 16 42z m134
-12 c0 -5 -2 -10 -4 -10 -3 0 -8 5 -11 10 -3 6 -1 10 4 10 6 0 11 -4 11 -10z
m-160 -54 c0 -5 -3 -6 -7 -3 -3 4 -12 2 -19 -4 -9 -8 -15 -5 -23 10 -15 28 17
48 36 23 7 -10 13 -21 13 -26z m-69 2 c11 -20 10 -22 -3 -10 -13 10 -17 10
-21 0 -4 -10 -8 -10 -16 2 -7 10 -6 17 2 22 19 12 25 10 38 -14z m-176 -81
c14 5 32 -34 21 -44 -3 -4 -6 2 -6 13 -1 18 -1 18 -14 1 -13 -16 -15 -15 -25
15 -9 24 -9 30 0 21 6 -6 17 -9 24 -6z m58 -2 c4 -8 1 -17 -5 -21 -7 -4 -8 -3
-4 4 4 7 2 12 -4 12 -6 0 -8 5 -5 10 8 14 12 13 18 -5z m-157 -60 c11 -27 11
-35 2 -33 -8 2 -12 -5 -10 -17 2 -16 1 -17 -7 -5 -7 9 -7 18 -1 24 15 15 12
26 -4 20 -16 -6 -36 24 -36 53 1 12 5 9 15 -12 l15 -30 -6 35 c-4 28 -3 32 6
17 6 -9 18 -33 26 -52z m194 56 c0 -6 -4 -13 -10 -16 -5 -3 -10 1 -10 9 0 9 5
16 10 16 6 0 10 -4 10 -9z m-327 -68 c18 -36 32 -94 17 -73 -8 13 -10 12 -10
-4 0 -26 -14 -11 -34 37 -15 38 -15 38 7 32 12 -3 18 -3 12 2 -11 9 -18 33
-10 33 2 0 11 -12 18 -27z m69 -27 c-2 -4 -9 -2 -14 5 -10 14 -9 7 8 -38 5
-12 4 -15 -3 -8 -6 6 -15 24 -21 42 -9 27 -8 32 6 35 17 4 34 -20 24 -36z
m142 18 c3 -8 2 -12 -4 -9 -6 3 -10 10 -10 16 0 14 7 11 14 -7z m-284 -24 c0
30 13 17 29 -29 10 -30 9 -32 -5 -20 -13 11 -14 9 -9 -14 4 -15 4 -27 1 -27
-7 0 -35 66 -41 99 -5 24 -4 24 9 -4 15 -29 15 -29 16 -5z m-41 -32 c6 -17 8
-34 5 -39 -3 -5 0 -9 7 -9 16 0 3 -13 -16 -16 -11 -2 -13 5 -9 24 4 19 3 23
-4 14 -7 -11 -12 -6 -21 19 -6 17 -11 33 -11 33 0 1 9 2 19 3 13 1 23 -8 30
-29z m201 22 c0 -5 -4 -10 -10 -10 -5 0 -10 5 -10 10 0 6 5 10 10 10 6 0 10
-4 10 -10z m-269 -25 c1 12 27 -55 28 -72 1 -7 -4 -13 -10 -13 -5 0 -7 6 -3
13 6 8 3 8 -9 -2 -18 -14 -23 -7 -41 59 -6 19 -5 21 3 10 9 -13 11 -12 11 5 0
17 2 17 10 5 5 -8 10 -10 11 -5z m-42 -95 c1 -20 -1 -22 -9 -10 -9 13 -10 13
-10 0 -1 -13 -2 -12 -10 1 -6 11 -5 25 3 42 10 22 13 24 19 9 4 -9 7 -28 7
-42z m-89 -1 c0 -18 -18 -9 -23 12 -4 16 -3 18 9 8 8 -6 14 -15 14 -20z m-106
3 c3 -5 -1 -9 -9 -9 -8 0 -12 4 -9 9 3 4 7 8 9 8 2 0 6 -4 9 -8z m56 -4 c0 -4
-4 -8 -9 -8 -6 0 -12 4 -15 8 -3 5 1 9 9 9 8 0 15 -4 15 -9z"/>
<path d="M4750 4375 c7 -9 15 -13 17 -11 7 7 -7 26 -19 26 -6 0 -6 -6 2 -15z"/>
<path d="M7775 4170 c11 -5 27 -9 35 -9 9 0 8 4 -5 9 -11 5 -27 9 -35 9 -9 0
-8 -4 5 -9z"/>
<path d="M7905 4130 c11 -5 27 -9 35 -9 9 0 8 4 -5 9 -11 5 -27 9 -35 9 -9 0
-8 -4 5 -9z"/>
<path d="M8065 4080 c28 -10 57 -18 65 -18 8 0 -7 8 -35 18 -27 10 -57 18 -65
18 -8 0 8 -8 35 -18z"/>
<path d="M8260 4020 c110 -37 205 -67 1070 -340 212 -67 486 -154 609 -193
l224 -72 -187 -182 c-104 -100 -185 -186 -182 -191 3 -5 0 -9 -8 -8 -18 1
-551 -503 -541 -512 7 -8 196 -78 315 -119 58 -19 175 -62 260 -95 85 -34 189
-74 230 -89 71 -27 193 -74 567 -220 90 -34 161 -65 159 -67 -4 -4 -71 20
-236 84 -52 20 -129 49 -170 64 -111 41 -219 81 -375 143 -219 85 -374 143
-450 168 -38 12 -128 44 -199 71 l-129 48 -21 -22 c-41 -42 -261 -252 -401
-383 -76 -71 -184 -173 -240 -226 -102 -97 -204 -193 -375 -354 -52 -49 -126
-119 -165 -155 -210 -198 -272 -257 -400 -376 -77 -71 -163 -152 -192 -178
l-52 -48 -63 34 c-99 54 -374 209 -598 338 -113 65 -353 202 -535 305 -329
186 -427 243 -518 297 -26 15 -50 28 -52 28 -3 0 -29 15 -58 33 -28 19 -86 53
-127 77 -245 140 -416 240 -580 337 -102 61 -281 167 -397 236 -117 70 -256
153 -308 186 -52 33 -105 65 -117 71 -21 10 -21 10 2 -9 14 -12 45 -33 70 -48
25 -14 48 -31 52 -37 4 -6 8 -7 8 -2 0 5 6 4 13 -2 14 -11 189 -119 314 -193
45 -27 87 -55 95 -62 7 -7 39 -26 71 -42 32 -16 70 -39 83 -52 14 -13 29 -23
33 -23 5 0 14 -7 21 -15 10 -12 8 -16 -14 -25 -14 -5 -26 -14 -26 -20 0 -7 7
-7 22 1 16 9 23 9 26 0 6 -19 22 -12 22 9 0 23 8 25 33 5 18 -13 18 -14 -2
-34 -19 -19 -19 -22 -6 -28 9 -3 14 -12 11 -19 -7 -19 21 -18 31 1 7 13 12 13
36 0 23 -12 27 -12 27 1 0 18 11 18 36 -1 11 -8 14 -15 7 -15 -8 0 -13 -14
-12 -37 0 -21 3 -32 6 -25 8 20 22 4 16 -18 -4 -16 -11 -19 -27 -14 -29 9 -46
24 -46 40 0 8 -5 14 -11 14 -6 0 -9 7 -5 15 3 9 0 15 -10 15 -11 0 -13 -6 -9
-21 5 -13 2 -25 -6 -29 -7 -5 -12 -22 -12 -39 0 -17 -5 -31 -10 -31 -5 0 -7
19 -5 45 3 25 4 45 2 45 -2 0 -12 -10 -24 -22 -17 -18 -20 -19 -20 -5 0 9 5
17 10 17 14 0 12 27 -2 33 -10 4 -10 6 -1 6 9 1 8 11 -5 36 -18 36 -38 48 -27
16 4 -14 -1 -20 -25 -24 -17 -4 -30 -13 -30 -21 0 -22 19 -30 26 -12 3 9 10
16 15 16 4 0 6 -7 2 -16 -3 -9 0 -20 8 -24 7 -5 10 -12 6 -16 -3 -4 -13 -1
-22 6 -13 11 -14 10 -10 -3 8 -20 -15 -34 -26 -16 -5 8 -9 11 -9 6 0 -4 5 -16
12 -26 9 -15 9 -23 -1 -35 -8 -9 -19 -16 -25 -16 -6 0 -4 4 4 10 12 7 12 12
-4 29 -19 21 -38 19 -35 -2 3 -16 -11 -47 -20 -47 -4 0 -5 14 -3 31 3 22 1 30
-7 25 -6 -4 -11 -14 -11 -22 0 -29 -17 -4 -18 25 -1 38 16 50 35 26 10 -14 16
-16 24 -8 6 6 18 9 25 6 8 -3 14 1 14 11 0 13 -5 14 -26 5 -34 -12 -40 -6 -25
27 6 15 10 28 8 30 -5 5 -57 -46 -57 -56 0 -6 -4 -10 -10 -10 -19 0 -10 30 15
46 14 9 25 21 24 28 0 7 -2 6 -6 -1 -2 -7 -9 -13 -15 -13 -6 0 -16 -8 -23 -17
-11 -15 -13 -13 -20 15 -3 18 -11 32 -17 32 -6 0 -8 -7 -4 -15 3 -9 0 -15 -9
-15 -8 0 -15 9 -15 20 0 11 -3 20 -7 20 -12 -1 -47 -83 -46 -108 1 -19 0 -19
-4 -2 -2 11 -9 20 -15 20 -6 0 -8 10 -4 24 4 15 0 28 -9 36 -12 10 -15 9 -15
-4 0 -9 5 -16 11 -16 5 0 7 -5 3 -11 -3 -6 -15 -9 -25 -6 -11 3 -19 -1 -22
-12 -3 -11 -8 -6 -17 17 -6 17 -19 32 -27 32 -13 0 -13 3 -3 15 14 17 7 45
-12 44 -10 0 -10 -2 -1 -6 9 -3 10 -10 4 -21 -25 -46 24 -109 74 -96 15 4 25
2 25 -5 0 -6 -7 -11 -15 -11 -31 0 -13 -18 24 -24 22 -3 42 -9 45 -14 5 -9
-43 -66 -50 -59 -3 3 1 15 8 26 11 18 11 23 -2 31 -11 7 -16 4 -18 -12 -3 -17
-6 -18 -13 -7 -6 10 -9 10 -9 2 0 -7 -5 -13 -11 -13 -7 0 -9 10 -7 25 4 21 3
23 -9 14 -17 -15 -31 -3 -15 13 8 8 5 16 -13 29 -30 24 -34 24 -27 -3 5 -21 4
-22 -11 -9 -9 7 -18 11 -18 7 -3 -12 -6 -21 -13 -39 -8 -16 -10 -15 -32 5 -13
13 -24 31 -24 41 0 19 -27 53 -36 45 -2 -3 2 -11 11 -18 15 -13 21 -40 8 -40
-20 1 -45 52 -38 78 6 26 6 26 -9 7 -8 -11 -12 -30 -9 -42 4 -18 1 -23 -15
-23 -11 0 -26 -7 -33 -16 -12 -15 -11 -16 9 -10 13 5 22 3 22 -3 0 -6 5 -11
10 -11 6 0 10 9 10 20 0 23 25 27 33 6 3 -7 0 -19 -6 -25 -6 -6 -7 -14 -3 -18
4 -5 14 0 21 10 7 10 16 14 19 9 9 -16 -21 -34 -44 -27 -19 6 -20 4 -14 -21 5
-19 4 -25 -5 -20 -13 8 -14 -3 -2 -23 7 -11 11 -10 19 5 6 10 14 15 18 11 4
-4 0 -15 -9 -24 -15 -16 -18 -15 -37 2 -11 10 -20 24 -20 32 0 7 -7 13 -16 13
-8 0 -12 5 -9 10 3 5 1 10 -4 10 -6 0 -11 -9 -11 -20 0 -11 -4 -20 -10 -20 -5
0 -16 -13 -25 -30 -20 -38 -19 -51 1 -22 8 12 20 20 25 17 5 -4 9 1 9 9 0 20
19 31 32 18 7 -7 3 -18 -14 -34 -13 -14 -25 -39 -26 -58 -3 -42 -12 -53 -12
-16 0 16 -4 25 -10 21 -12 -8 -40 -71 -40 -91 0 -14 46 -39 63 -36 4 1 7 -5 7
-13 0 -9 6 -12 15 -9 8 4 15 1 15 -5 0 -6 5 -11 11 -11 5 0 7 5 4 10 -4 6 5
24 18 40 16 19 23 37 20 50 -6 23 9 27 26 6 9 -10 8 -15 -4 -20 -8 -3 -15 -12
-15 -20 0 -7 -7 -17 -16 -20 -10 -4 -14 -14 -11 -25 2 -10 1 -25 -4 -33 -7
-12 -1 -19 21 -28 25 -10 29 -17 24 -36 -5 -18 -2 -24 10 -24 12 0 15 6 10 24
-3 13 -1 27 6 31 13 8 39 -22 40 -46 0 -9 8 -27 18 -40 l19 -22 19 41 c22 49
30 52 37 15 6 -33 0 -44 -13 -23 -7 11 -10 11 -11 3 -3 -28 -4 -32 -12 -39 -4
-4 -7 -11 -7 -16 0 -5 15 3 34 17 21 16 37 22 40 16 4 -6 -2 -16 -14 -23 -12
-8 -20 -23 -20 -40 0 -16 -9 -34 -24 -46 -19 -14 -22 -22 -13 -31 8 -8 8 -11
-1 -11 -7 0 -12 -4 -12 -10 0 -5 7 -6 17 -3 10 4 14 2 9 -5 -3 -6 2 -16 13
-21 16 -9 18 -8 14 9 -3 11 -10 20 -15 20 -16 0 -4 45 13 48 18 3 35 -41 19
-46 -6 -2 -8 -8 -4 -13 3 -5 12 -2 20 6 14 13 14 21 0 67 -8 29 -13 54 -10 57
13 13 37 7 41 -10 3 -10 9 -16 15 -13 5 3 6 14 3 24 -3 10 0 22 6 26 8 5 9 3
4 -6 -4 -7 -2 -16 6 -21 10 -6 7 -13 -14 -29 -24 -19 -26 -23 -11 -37 14 -14
13 -18 -5 -37 -14 -15 -17 -26 -11 -36 14 -22 12 -28 -12 -32 -22 -3 -22 -3
-2 -22 19 -20 19 -20 22 2 2 12 8 22 13 22 15 0 23 -31 10 -39 -8 -6 -4 -13
14 -25 25 -17 27 -17 41 1 14 17 14 17 5 -3 -12 -25 9 -51 30 -38 7 4 9 3 6
-4 -4 -5 12 -24 35 -41 24 -17 48 -34 53 -38 6 -5 32 -24 60 -43 27 -19 54
-39 60 -43 16 -13 362 -257 455 -322 47 -32 111 -77 143 -99 32 -23 65 -45 74
-51 19 -11 19 -11 83 -58 25 -19 80 -58 124 -88 279 -193 552 -390 591 -427
11 -9 604 -12 2899 -12 l2886 0 0 1440 0 1439 -72 21 c-40 12 -107 32 -148 45
-41 13 -232 71 -425 128 -574 172 -609 182 -880 265 -400 122 -911 281 -1330
413 -580 184 -984 309 -992 308 -5 0 44 -18 107 -39z m1918 -638 c-16 -3 -16
-5 -1 -28 9 -14 21 -23 27 -21 6 2 28 -2 49 -9 20 -7 44 -11 52 -8 11 5 13 2
9 -10 -3 -9 -10 -14 -14 -11 -12 8 -41 -6 -34 -16 7 -12 54 -11 54 1 0 6 10
10 23 10 18 0 19 2 7 10 -12 8 -11 10 7 10 12 0 24 -4 27 -9 3 -4 17 -6 31 -3
26 5 59 -14 49 -29 -3 -5 2 -9 11 -9 9 0 13 -4 10 -10 -9 -15 4 -12 21 5 9 8
12 21 8 27 -4 7 3 4 15 -7 19 -17 21 -21 7 -23 -23 -5 -10 -22 17 -23 12 0 16
-3 10 -6 -32 -12 -10 -22 55 -24 18 -1 22 -7 22 -32 0 -17 3 -27 7 -24 3 4 12
2 18 -3 9 -8 14 -6 19 5 3 8 13 15 21 15 9 0 14 -4 11 -9 -10 -16 6 -42 33
-54 l26 -11 -23 -4 c-23 -3 -23 -4 -6 -23 16 -18 16 -19 0 -19 -10 0 -24 -7
-33 -16 -12 -11 -27 -14 -57 -9 -30 5 -37 3 -26 -4 18 -13 90 -14 90 -2 0 5
12 11 27 14 24 4 26 4 10 -8 -25 -18 -21 -25 13 -25 17 0 29 -3 29 -7 -4 -26
3 -31 36 -26 23 4 35 2 35 -6 0 -7 -9 -9 -24 -5 -13 3 -27 1 -30 -5 -4 -7 1
-11 13 -11 28 0 52 -11 45 -21 -3 -5 2 -9 10 -9 9 0 16 -5 16 -11 0 -6 -8 -8
-17 -5 -10 3 -31 2 -48 -3 l-30 -9 30 -3 c17 -1 42 -3 57 -3 35 -2 49 -16 15
-16 -36 0 -44 -18 -10 -23 26 -4 26 -4 -4 -6 -18 0 -33 4 -33 9 0 6 -4 10 -10
10 -5 0 -10 -9 -10 -20 0 -16 7 -20 38 -20 28 0 33 -3 22 -10 -8 -6 -32 -7
-54 -4 -27 4 -36 3 -32 -5 4 -6 19 -11 34 -11 15 0 33 -4 40 -9 21 -13 -25
-22 -55 -10 -32 12 -63 12 -63 -1 0 -5 10 -10 22 -10 18 0 19 -3 10 -12 -10
-10 -19 -9 -43 5 -37 21 -109 34 -109 19 0 -13 26 -23 43 -17 6 3 17 -3 24
-14 11 -18 10 -18 -20 -9 -18 6 -40 14 -49 19 -12 6 -18 3 -23 -10 -4 -13 -12
-17 -25 -14 -11 3 -20 9 -20 14 0 5 -3 8 -7 8 -29 -5 -31 5 -3 12 24 5 8 7
-53 5 -48 -2 -89 0 -92 4 -6 10 69 22 92 14 16 -6 16 -5 -2 10 -19 17 -19 17
20 11 29 -4 36 -3 25 4 -19 13 -90 14 -90 2 0 -5 -28 -10 -61 -10 -67 0 -74 6
-17 13 37 5 78 25 78 38 0 4 -15 6 -32 5 -18 -2 -32 -8 -31 -14 1 -6 -12 -8
-37 -3 -22 4 -40 5 -40 2 0 -2 -7 1 -15 8 -12 10 -18 10 -30 0 -10 -9 -15 -9
-15 -1 0 6 -5 11 -11 11 -6 0 -18 7 -27 16 -15 15 -14 16 8 9 14 -5 35 -8 48
-7 12 1 22 -2 22 -6 0 -5 14 -7 30 -4 18 2 30 0 30 -7 0 -6 7 -8 15 -5 8 4 13
10 10 14 -10 16 14 21 34 8 17 -10 23 -10 35 2 13 13 8 15 -50 17 -36 2 -73
-1 -83 -7 -10 -5 -21 -6 -25 -3 -3 3 -18 8 -32 9 -41 4 -52 22 -13 21 24 -2
34 2 34 13 1 20 -18 32 -27 17 -4 -7 -28 -11 -58 -10 -35 1 -48 -2 -43 -10 3
-7 -3 -4 -14 6 -25 21 -53 22 -53 1 0 -10 -6 -14 -15 -10 -9 3 -15 0 -15 -9 0
-26 -15 -16 -16 10 -2 23 2 27 22 24 4 0 10 3 13 8 3 4 16 14 29 21 18 10 22
10 22 -2 0 -18 43 -33 48 -17 5 14 29 15 34 0 6 -17 34 0 35 22 1 13 -3 19
-11 16 -8 -3 -18 -1 -23 4 -11 11 -37 -9 -46 -33 -3 -9 -10 -6 -22 10 -17 23
-45 30 -45 11 0 -5 -4 -7 -10 -4 -5 3 -10 2 -10 -4 0 -10 -56 15 -65 30 -9 14
8 11 33 -7 12 -8 22 -10 22 -5 0 6 7 11 15 11 8 0 15 5 15 11 0 7 -12 8 -32 4
-29 -5 -27 -2 17 20 l50 27 -39 -7 c-21 -4 -50 -14 -64 -23 -28 -18 -138 -21
-168 -4 -16 9 -12 11 21 8 22 -2 51 0 65 4 20 5 13 8 -32 14 -32 4 -61 5 -66
2 -5 -3 -22 -1 -38 4 -16 4 -23 9 -17 9 7 1 46 35 87 77 64 66 78 76 100 70
14 -3 28 -1 32 6 4 6 3 8 -4 5 -5 -4 -17 -4 -25 -1 -11 4 10 30 76 94 63 61
95 86 106 82 14 -6 14 -7 -1 -10z m27 -22 c3 -5 1 -10 -4 -10 -6 0 -11 5 -11
10 0 6 2 10 4 10 3 0 8 -4 11 -10z m385 -116 c0 -2 -7 -4 -15 -4 -8 0 -15 4
-15 10 0 5 7 7 15 4 8 -4 15 -8 15 -10z m220 -154 c0 -5 -2 -10 -4 -10 -3 0
-8 5 -11 10 -3 6 -1 10 4 10 6 0 11 -4 11 -10z m-1040 -84 c0 -2 -7 -7 -16
-10 -8 -3 -12 -2 -9 4 6 10 25 14 25 6z m153 -18 c9 0 17 -4 17 -9 0 -6 8 -8
18 -5 9 3 24 1 32 -4 11 -7 2 -9 -27 -6 -51 5 -56 -7 -10 -22 l32 -10 -32 -1
c-22 -1 -33 4 -37 17 -3 9 -18 25 -33 35 -27 18 -27 18 -3 11 14 -4 33 -7 43
-6z m-113 -2 c0 -3 -4 -8 -10 -11 -5 -3 -10 -1 -10 4 0 6 5 11 10 11 6 0 10
-2 10 -4z m44 -21 c-3 -8 -12 -11 -20 -8 -15 5 -18 16 -8 26 11 10 33 -4 28
-18z m1011 15 c16 -7 13 -9 -17 -9 -21 -1 -38 4 -38 9 0 12 27 12 55 0z m-835
-20 c0 -5 -4 -10 -10 -10 -5 0 -10 5 -10 10 0 6 5 10 10 10 6 0 10 -4 10 -10z
m-295 -20 c3 -5 -1 -10 -10 -10 -9 0 -13 5 -10 10 3 6 8 10 10 10 2 0 7 -4 10
-10z m155 6 c0 -3 -4 -8 -10 -11 -5 -3 -10 -1 -10 4 0 6 5 11 10 11 6 0 10 -2
10 -4z m1010 0 c0 -3 -4 -8 -10 -11 -5 -3 -10 -1 -10 4 0 6 5 11 10 11 6 0 10
-2 10 -4z m-991 -52 c2 -2 -12 -4 -33 -4 -22 0 -35 4 -31 10 5 9 52 4 64 -6z
m59 9 c-10 -2 -26 -2 -35 0 -10 3 -2 5 17 5 19 0 27 -2 18 -5z m192 -19 c0 -2
-9 -4 -20 -4 -11 0 -20 4 -20 9 0 5 9 7 20 4 11 -3 20 -7 20 -9z m-140 2 c0
-2 -7 -6 -15 -10 -8 -3 -15 -1 -15 4 0 6 7 10 15 10 8 0 15 -2 15 -4z m-100
-26 c0 -5 -5 -10 -11 -10 -5 0 -7 5 -4 10 3 6 8 10 11 10 2 0 4 -4 4 -10z
m207 4 c-3 -3 -12 -4 -19 -1 -8 3 -5 6 6 6 11 1 17 -2 13 -5z m53 -4 c0 -5 -8
-10 -17 -10 -15 0 -16 2 -3 10 19 12 20 12 20 0z m30 -20 c0 -5 -4 -10 -10
-10 -5 0 -10 5 -10 10 0 6 5 10 10 10 6 0 10 -4 10 -10z m149 -36 c2 -2 -12
-4 -33 -4 -22 0 -35 4 -31 10 5 9 52 4 64 -6z m-152 -10 c-3 -3 -12 -4 -19 -1
-8 3 -5 6 6 6 11 1 17 -2 13 -5z m58 -24 c4 -6 -9 -10 -32 -9 -34 1 -35 2 -13
9 35 11 38 11 45 0z m68 3 c-7 -2 -21 -2 -30 0 -10 3 -4 5 12 5 17 0 24 -2 18
-5z m47 -17 c0 -11 -19 -15 -25 -6 -3 5 1 10 9 10 9 0 16 -2 16 -4z m-170 -26
c11 -8 7 -9 -15 -4 -37 8 -45 14 -19 14 10 0 26 -5 34 -10z m224 -7 c9 4 16 2
16 -2 0 -5 17 -13 38 -19 34 -9 35 -10 8 -11 -47 -2 -105 20 -99 36 4 11 8 12
13 2 5 -6 15 -9 24 -6z m79 0 c-7 -2 -19 -2 -25 0 -7 3 -2 5 12 5 14 0 19 -2
13 -5z m-746 -9 c-3 -3 -12 -4 -19 -1 -8 3 -5 6 6 6 11 1 17 -2 13 -5z m814
-9 c23 -12 34 -13 50 -4 16 8 20 8 14 -1 -5 -8 1 -11 18 -8 15 1 25 -1 24 -7
-3 -15 -111 -6 -120 10 -4 8 -14 12 -22 9 -8 -4 -15 -1 -15 5 0 15 16 14 51
-4z m179 5 c0 -5 -4 -10 -10 -10 -5 0 -10 5 -10 10 0 6 5 10 10 10 6 0 10 -4
10 -10z m-310 -39 c0 -5 10 -11 23 -13 12 -2 -9 -3 -48 -2 -82 2 -88 3 -55 14
35 11 80 12 80 1z m128 -2 c34 0 35 -1 13 -10 -28 -11 -94 -1 -85 13 3 5 13 7
21 4 8 -3 31 -6 51 -7z m182 -8 c13 -13 13 -14 -2 -9 -9 4 -33 2 -53 -3 -37
-10 -94 -4 -81 8 4 4 27 6 52 4 26 -1 44 1 41 7 -10 15 27 10 43 -7z m-559 -9
c-13 -2 -27 0 -32 5 -6 6 3 7 23 4 28 -4 29 -6 9 -9z m126 2 c-3 -3 -12 -4
-19 -1 -8 3 -5 6 6 6 11 1 17 -2 13 -5z m113 -19 c0 -8 -7 -15 -15 -15 -8 0
-15 -4 -15 -10 0 -5 11 -10 24 -10 26 0 47 19 24 21 -21 2 34 17 65 18 15 1
27 -3 27 -9 0 -5 -16 -10 -35 -10 -19 0 -35 -4 -35 -10 0 -10 20 -14 55 -12
16 2 17 0 5 -7 -8 -6 -34 -7 -57 -4 -31 4 -43 2 -43 -7 0 -9 -14 -11 -52 -7
l-53 6 35 -20 c35 -19 35 -19 5 -13 -16 4 -36 11 -43 17 -19 15 6 28 41 21 31
-7 34 1 10 29 -17 19 -17 20 0 14 11 -4 25 -1 33 8 19 19 24 19 24 0z m-825
-13 c-3 -3 -11 0 -18 7 -9 10 -8 11 6 5 10 -3 15 -9 12 -12z m1116 9 c-11 -7
-10 -11 5 -20 11 -6 15 -10 9 -11 -5 0 -16 4 -24 9 -15 10 -7 31 12 31 8 0 7
-3 -2 -9z m-384 -7 c-3 -3 -12 -4 -19 -1 -8 3 -5 6 6 6 11 1 17 -2 13 -5z
m353 -4 c0 -5 -4 -10 -9 -10 -6 0 -13 5 -16 10 -3 6 1 10 9 10 9 0 16 -4 16
-10z m-67 -7 c-7 -2 -19 -2 -25 0 -7 3 -2 5 12 5 14 0 19 -2 13 -5z m219 0
c-6 -2 -10 -9 -6 -14 3 -5 0 -9 -5 -9 -12 0 -14 13 -4 23 3 4 11 7 17 6 6 0 5
-3 -2 -6z m-222 -23 c0 -5 -7 -10 -15 -10 -8 0 -15 5 -15 10 0 6 7 10 15 10 8
0 15 -4 15 -10z m-487 -7 c-7 -2 -21 -2 -30 0 -10 3 -4 5 12 5 17 0 24 -2 18
-5z m569 -5 c-9 -9 -15 -9 -24 0 -9 9 -7 12 12 12 19 0 21 -3 12 -12z m48 -2
c0 -2 -7 -7 -16 -10 -8 -3 -12 -2 -9 4 6 10 25 14 25 6z m-230 -21 c32 -18 17
-18 -40 -1 -40 13 -42 15 -15 15 17 0 41 -6 55 -14z m296 -23 c-4 -3 -14 2
-24 12 -16 18 -16 18 6 6 13 -6 21 -14 18 -18z m-356 -3 c0 -4 -7 -6 -15 -3
-8 4 -15 10 -15 15 0 4 7 6 15 3 8 -4 15 -10 15 -15z m297 15 c-3 -3 -12 -4
-19 -1 -8 3 -5 6 6 6 11 1 17 -2 13 -5z m-617 -8 c0 -2 -8 -10 -17 -17 -16
-13 -17 -12 -4 4 13 16 21 21 21 13z m275 -27 c45 -23 13 -20 -43 2 -30 13
-34 12 -44 -4 -9 -17 -11 -17 -28 -2 -10 9 -32 17 -50 17 -17 1 -26 4 -20 8
20 13 145 -2 185 -21z m220 21 c3 -5 -1 -10 -10 -10 -9 0 -13 5 -10 10 3 6 8
10 10 10 2 0 7 -4 10 -10z m-115 -10 c0 -5 -11 -10 -25 -10 -14 0 -25 5 -25
10 0 6 11 10 25 10 14 0 25 -4 25 -10z m167 4 c-3 -3 -12 -4 -19 -1 -8 3 -5 6
6 6 11 1 17 -2 13 -5z m-497 -24 c0 -5 -7 -10 -15 -10 -8 0 -15 5 -15 10 0 6
7 10 15 10 8 0 15 -4 15 -10z m97 -16 c-3 -3 -12 -4 -19 -1 -8 3 -5 6 6 6 11
1 17 -2 13 -5z m393 -14 c-8 -6 -22 -10 -30 -9 -9 0 -5 6 10 14 27 14 44 10
20 -5z m-180 -5 c0 -8 -7 -15 -15 -15 -8 0 -15 7 -15 15 0 8 7 15 15 15 8 0
15 -7 15 -15z m115 5 c3 -5 -1 -10 -9 -10 -9 0 -16 5 -16 10 0 6 4 10 9 10 6
0 13 -4 16 -10z m-191 -25 c-31 -27 -31 -30 9 -40 17 -5 27 -3 27 4 0 6 10 10
23 10 16 -1 18 -2 5 -6 -10 -2 -18 -9 -18 -14 0 -13 -78 -11 -82 3 -3 7 -10 8
-17 4 -11 -7 -11 -10 0 -18 11 -8 11 -9 1 -6 -8 2 -14 8 -14 13 0 6 -4 15 -9
21 -6 8 -1 10 18 6 22 -4 25 -2 20 12 -5 11 -3 15 5 10 7 -5 9 -2 6 8 -5 11 1
15 24 16 l30 1 -28 -24z m339 18 c-7 -2 -19 -2 -25 0 -7 3 -2 5 12 5 14 0 19
-2 13 -5z m-418 -13 c3 -5 1 -10 -4 -10 -6 0 -11 5 -11 10 0 6 2 10 4 10 3 0
8 -4 11 -10z m-154 -28 c-13 -2 -27 0 -32 5 -6 6 3 7 23 4 28 -4 29 -6 9 -9z
m107 -10 c2 -7 -3 -12 -10 -12 -8 0 -15 7 -15 15 0 18 19 15 25 -3z m367 8 c3
-5 1 -10 -4 -10 -6 0 -11 5 -11 10 0 6 2 10 4 10 3 0 8 -4 11 -10z m108 3 c-7
-2 -19 -2 -25 0 -7 3 -2 5 12 5 14 0 19 -2 13 -5z m-526 -20 c-9 -2 -15 -8
-13 -12 3 -4 -14 -8 -37 -9 -31 -2 -38 0 -27 8 8 5 22 7 32 4 9 -2 19 0 23 6
3 5 14 9 23 9 15 -1 15 -2 -1 -6z m88 -13 c3 -5 2 -10 -4 -10 -5 0 -13 5 -16
10 -3 6 -2 10 4 10 5 0 13 -4 16 -10z m222 4 c-3 -3 -12 -4 -19 -1 -8 3 -5 6
6 6 11 1 17 -2 13 -5z m-378 -43 c-6 -2 -18 4 -27 13 -15 15 -15 15 10 4 15
-7 23 -15 17 -17z m291 -3 c0 -5 -9 -4 -19 2 -11 5 -29 10 -40 10 -12 0 -21 4
-21 9 0 5 17 4 40 -1 22 -6 40 -15 40 -20z m237 26 c-3 -3 -12 -4 -19 -1 -8 3
-5 6 6 6 11 1 17 -2 13 -5z m63 -10 c0 -2 -7 -4 -15 -4 -8 0 -15 4 -15 10 0 5
7 7 15 4 8 -4 15 -8 15 -10z m-510 -13 c0 -5 -9 -11 -20 -14 -23 -6 -25 -2 -7
17 12 14 27 12 27 -3z m40 10 c0 -5 -7 -14 -15 -21 -16 -14 -18 -10 -9 14 6
17 24 22 24 7z m79 -13 c13 -4 12 -5 -1 -10 -10 -4 -23 2 -35 14 -18 20 -18
21 2 11 11 -6 27 -12 34 -15z m-274 2 c3 -5 1 -10 -4 -10 -6 0 -11 5 -11 10 0
6 2 10 4 10 3 0 8 -4 11 -10z m102 -26 c-3 -3 -12 -4 -19 -1 -8 3 -5 6 6 6 11
1 17 -2 13 -5z m368 -4 c-16 -4 -24 -8 -16 -9 8 0 12 -4 8 -7 -9 -9 -28 6 -22
17 4 5 18 8 33 8 l27 -1 -30 -8z m-192 -17 c-7 -2 -19 -2 -25 0 -7 3 -2 5 12
5 14 0 19 -2 13 -5z m-156 -19 c-3 -3 -12 -4 -19 -1 -8 3 -5 6 6 6 11 1 17 -2
13 -5z m-5357 -114 c0 -5 -5 -10 -11 -10 -5 0 -7 5 -4 10 3 6 8 10 11 10 2 0
4 -4 4 -10z m45 -38 c-3 -3 -11 0 -18 7 -9 10 -8 11 6 5 10 -3 15 -9 12 -12z
m-355 -58 c0 -8 -4 -12 -10 -9 -5 3 -10 10 -10 16 0 5 5 9 10 9 6 0 10 -7 10
-16z m459 -49 l-1 -30 -13 35 c-19 49 -19 69 0 44 8 -10 14 -32 14 -49z m-485
46 c3 -5 -1 -14 -8 -20 -12 -10 -13 -8 -9 8 6 23 9 25 17 12z m-38 -28 c-10
-10 -19 5 -10 18 6 11 8 11 12 0 2 -7 1 -15 -2 -18z m64 -7 c0 -8 -6 -16 -12
-19 -7 -2 -10 -8 -5 -12 4 -5 13 0 21 10 12 17 14 16 17 -11 4 -27 2 -29 -28
-31 -26 -1 -33 2 -33 17 0 10 -6 21 -12 23 -8 4 -7 6 3 6 9 1 19 8 23 16 7 19
26 20 26 1z m496 -21 c0 -19 -4 -35 -8 -35 -10 0 -11 54 -1 63 9 10 9 10 9
-28z m64 -8 c0 -18 -2 -19 -10 -7 -13 20 -13 43 0 35 6 -3 10 -16 10 -28z
m-790 -27 c-9 -5 -9 -9 -1 -14 6 -4 11 -12 11 -19 0 -8 -3 -8 -12 1 -30 30
-40 -8 -10 -41 9 -11 13 -18 7 -15 -5 2 -28 12 -50 22 l-39 18 -24 -27 c-13
-15 -25 -25 -28 -22 -3 3 7 17 21 33 14 15 25 35 24 43 -3 29 1 33 16 17 8 -8
12 -22 9 -30 -3 -9 -2 -16 4 -16 16 0 34 28 26 41 -4 8 -3 9 4 5 8 -5 12 1 12
14 0 16 5 20 15 16 8 -3 14 -2 14 2 -3 20 4 23 8 3 3 -13 -1 -27 -7 -31z m447
24 c-9 -9 -28 6 -21 18 4 6 10 6 17 -1 6 -6 8 -13 4 -17z m312 -1 c0 -25 -1
-25 -8 -8 -5 11 -7 23 -4 28 8 14 13 7 12 -20z m-194 7 c3 -5 1 -10 -4 -10 -6
0 -11 5 -11 10 0 6 2 10 4 10 3 0 8 -4 11 -10z m-75 -20 c0 -5 -4 -10 -10 -10
-5 0 -10 5 -10 10 0 6 5 10 10 10 6 0 10 -4 10 -10z m210 -15 c10 -12 9 -18
-4 -31 -13 -12 -14 -19 -5 -30 9 -11 9 -14 0 -14 -17 0 -25 28 -12 44 8 10 9
16 1 21 -12 8 -13 25 -1 25 5 0 14 -7 21 -15z m170 -5 c0 -5 -4 -10 -10 -10
-5 0 -10 5 -10 10 0 6 5 10 10 10 6 0 10 -4 10 -10z m25 -10 c3 -5 1 -10 -4
-10 -6 0 -11 5 -11 10 0 6 2 10 4 10 3 0 8 -4 11 -10z m-655 -10 c0 -5 -2 -10
-4 -10 -3 0 -8 5 -11 10 -3 6 -1 10 4 10 6 0 11 -4 11 -10z m40 -6 c0 -8 -4
-12 -10 -9 -5 3 -10 10 -10 16 0 5 5 9 10 9 6 0 10 -7 10 -16z m90 -15 c0 -5
-4 -9 -10 -9 -5 0 -10 7 -10 16 0 8 5 12 10 9 6 -3 10 -10 10 -16z m220 11 c0
-5 -4 -10 -10 -10 -5 0 -10 5 -10 10 0 6 5 10 10 10 6 0 10 -4 10 -10z m250
-24 c0 -5 -7 -3 -15 4 -8 7 -12 17 -9 22 7 10 24 -9 24 -26z m-800 14 c0 -5
-4 -10 -10 -10 -5 0 -10 5 -10 10 0 6 5 10 10 10 6 0 10 -4 10 -10z m435 0 c3
-6 -1 -7 -9 -4 -18 7 -21 14 -7 14 6 0 13 -4 16 -10z m446 -13 c-10 -9 -11 -8
-5 6 3 10 9 15 12 12 3 -3 0 -11 -7 -18z m-831 4 c0 -17 -18 -21 -24 -6 -3 9
0 15 9 15 8 0 15 -4 15 -9z m27 -23 c-3 -8 -6 -5 -6 6 -1 11 2 17 5 13 3 -3 4
-12 1 -19z m150 -25 c-4 -17 -4 -17 -12 0 -4 9 -4 25 0 35 8 16 8 16 12 0 3
-10 3 -26 0 -35z m143 37 c0 -5 -5 -10 -11 -10 -5 0 -7 5 -4 10 3 6 8 10 11
10 2 0 4 -4 4 -10z m325 -11 c-10 -15 -25 -10 -19 6 4 8 10 12 15 9 5 -3 7
-10 4 -15z m-588 -11 c-3 -8 -6 -5 -6 6 -1 11 2 17 5 13 3 -3 4 -12 1 -19z
m206 -5 c3 -16 3 -30 1 -33 -7 -7 -24 23 -24 43 0 27 17 20 23 -10z m457 17
c0 -5 -5 -10 -11 -10 -5 0 -7 5 -4 10 3 6 8 10 11 10 2 0 4 -4 4 -10z m-1019
-28 c-7 -13 -7 -22 1 -30 9 -9 9 -15 -1 -24 -11 -10 -13 -10 -7 0 4 6 2 12 -3
12 -6 0 -11 -5 -11 -12 0 -9 -3 -9 -11 -1 -9 9 -6 21 11 48 23 37 40 43 21 7z
m116 -4 c-3 -7 -5 -2 -5 12 0 14 2 19 5 13 2 -7 2 -19 0 -25z m533 21 c0 -5 5
-7 10 -4 18 11 11 -5 -13 -31 -21 -23 -25 -24 -37 -9 -7 9 -9 15 -4 14 26 -5
35 2 29 21 -4 11 -2 20 4 20 6 0 11 -5 11 -11z m-579 -25 c7 -8 8 -18 4 -22
-4 -4 -10 -1 -12 6 -3 6 -13 12 -24 12 -10 0 -19 6 -19 14 0 17 34 10 51 -10z
m339 5 c0 -6 -4 -7 -10 -4 -5 3 -10 11 -10 16 0 6 5 7 10 4 6 -3 10 -11 10
-16z m646 -16 c-11 -11 -19 6 -11 24 8 17 8 17 12 0 3 -10 2 -21 -1 -24z
m-156 7 c0 -5 -5 -10 -11 -10 -5 0 -7 5 -4 10 3 6 8 10 11 10 2 0 4 -4 4 -10z
m3600 -10 c0 -5 -7 -10 -15 -10 -8 0 -15 5 -15 10 0 6 7 10 15 10 8 0 15 -4
15 -10z m-4380 -4 c0 -3 -4 -8 -10 -11 -5 -3 -10 -1 -10 4 0 6 5 11 10 11 6 0
10 -2 10 -4z m272 -40 c-2 -5 -9 -1 -14 8 -5 9 -6 21 -2 28 9 14 25 -22 16
-36z m108 29 c0 -8 -4 -15 -10 -15 -5 0 -10 7 -10 15 0 8 5 15 10 15 6 0 10
-7 10 -15z m300 -1 c0 -2 -7 -4 -15 -4 -8 0 -15 4 -15 10 0 5 7 7 15 4 8 -4
15 -8 15 -10z m3643 9 c-7 -2 -19 -2 -25 0 -7 3 -2 5 12 5 14 0 19 -2 13 -5z
m107 -3 c13 -8 13 -10 -2 -10 -9 0 -20 5 -23 10 -8 13 5 13 25 0z m-4309 -43
c-6 -15 -15 -27 -21 -27 -5 0 -2 15 8 34 19 38 28 33 13 -7z m309 17 c0 -8 -4
-12 -10 -9 -5 3 -10 10 -10 16 0 5 5 9 10 9 6 0 10 -7 10 -16z m-440 -4 c0 -5
-4 -10 -10 -10 -5 0 -10 5 -10 10 0 6 5 10 10 10 6 0 10 -4 10 -10z m210 -10
c0 -14 5 -18 18 -13 15 6 15 5 4 -10 -10 -12 -17 -13 -26 -5 -13 13 -16 48 -4
48 4 0 8 -9 8 -20z m140 16 c0 -3 -4 -8 -10 -11 -5 -3 -10 -1 -10 4 0 6 5 11
10 11 6 0 10 -2 10 -4z m-297 -47 c-6 -6 -9 -1 -7 13 3 33 6 36 11 14 3 -10 1
-22 -4 -27z m647 31 c0 -5 -5 -10 -11 -10 -5 0 -7 5 -4 10 3 6 8 10 11 10 2 0
4 -4 4 -10z m-96 -99 c-5 -5 -20 -12 -34 -16 -18 -4 -21 -3 -11 3 8 6 11 17 8
25 -3 8 1 24 9 35 10 15 11 21 2 24 -7 3 -8 9 -3 18 7 11 13 2 24 -33 9 -29
11 -51 5 -56z m190 83 c3 -8 2 -12 -4 -9 -6 3 -10 10 -10 16 0 14 7 11 14 -7z
m-948 -32 c-4 -3 -12 0 -19 7 -9 9 -9 14 3 21 11 7 16 5 18 -6 2 -9 1 -18 -2
-22z m33 -8 c-17 -21 -21 -11 -8 22 10 23 13 25 16 11 3 -10 -1 -25 -8 -33z
m131 36 c0 -5 -5 -10 -11 -10 -5 0 -7 5 -4 10 3 6 8 10 11 10 2 0 4 -4 4 -10z
m440 -27 c0 -20 -3 -33 -7 -29 -11 11 -12 66 -2 66 5 0 9 -16 9 -37z m-44 2
c3 -14 3 -33 -1 -42 -5 -10 -8 -27 -7 -38 1 -16 0 -17 -4 -2 -6 19 -19 22 -29
7 -8 -13 -25 -13 -25 1 0 5 13 15 29 20 30 10 36 36 17 67 -4 7 -3 12 3 12 6
0 13 -11 17 -25z m4231 19 c-3 -3 -12 -4 -19 -1 -8 3 -5 6 6 6 11 1 17 -2 13
-5z m-4667 -59 c-6 -15 -13 -25 -16 -22 -4 3 0 20 7 37 17 37 24 25 9 -15z
m310 35 c0 -5 -7 -10 -16 -10 -8 0 -12 5 -9 10 3 6 10 10 16 10 5 0 9 -4 9
-10z m87 -22 c-3 -7 -5 -2 -5 12 0 14 2 19 5 13 2 -7 2 -19 0 -25z m298 21
c12 -19 -5 -23 -22 -6 -16 16 -16 17 -1 17 9 0 20 -5 23 -11z m105 -14 c-7 -9
-15 -13 -18 -10 -3 2 1 11 8 20 7 9 15 13 18 10 3 -2 -1 -11 -8 -20z m-270 7
c0 -10 -22 -32 -32 -32 -5 0 -3 9 4 20 13 20 28 27 28 12z m-499 -47 c-5 -30
-8 -35 -12 -20 -6 20 7 72 15 64 2 -2 1 -22 -3 -44z m299 24 c0 -5 5 -7 10 -4
13 8 13 -4 -1 -44 -15 -44 -24 -39 -24 14 0 25 3 45 8 45 4 0 7 -5 7 -11z
m400 1 c0 -5 -4 -10 -10 -10 -5 0 -10 5 -10 10 0 6 5 10 10 10 6 0 10 -4 10
-10z m670 0 c0 -5 -4 -10 -10 -10 -5 0 -10 5 -10 10 0 6 5 10 10 10 6 0 10 -4
10 -10z m3390 0 c0 -5 -9 -10 -20 -10 -11 0 -20 5 -20 10 0 6 9 10 20 10 11 0
20 -4 20 -10z m-4648 -40 l4 -40 -21 21 c-14 15 -16 23 -7 26 6 3 12 11 12 19
0 30 8 12 12 -26z m88 18 c0 -21 -1 -21 -14 -3 -12 17 -14 15 -29 -26 -14 -39
-16 -41 -16 -16 -1 38 16 67 39 67 14 0 20 -7 20 -22z m52 0 c-7 -7 -12 -8
-12 -2 0 14 12 26 19 19 2 -3 -1 -11 -7 -17z m1088 12 c0 -5 -4 -10 -10 -10
-5 0 -10 5 -10 10 0 6 5 10 10 10 6 0 10 -4 10 -10z m3363 3 c-7 -2 -21 -2
-30 0 -10 3 -4 5 12 5 17 0 24 -2 18 -5z m-4065 -19 c-2 -8 -7 -15 -13 -15 -5
-1 -16 -5 -22 -11 -19 -15 -16 -1 5 21 21 24 35 26 30 5z m4175 9 c-7 -2 -21
-2 -30 0 -10 3 -4 5 12 5 17 0 24 -2 18 -5z m-4743 -7 c0 -3 -4 -8 -10 -11 -5
-3 -10 -1 -10 4 0 6 5 11 10 11 6 0 10 -2 10 -4z m693 -59 c-3 -4 -12 -2 -20
5 -10 8 -11 14 -4 16 6 2 11 11 12 20 1 10 4 7 8 -8 5 -14 6 -29 4 -33z m-728
33 c3 -5 1 -10 -4 -10 -6 0 -11 5 -11 10 0 6 2 10 4 10 3 0 8 -4 11 -10z m683
-15 c-3 -3 -9 2 -12 12 -6 14 -5 15 5 6 7 -7 10 -15 7 -18z m225 0 c-7 -21
-13 -19 -13 6 0 11 4 18 10 14 5 -3 7 -12 3 -20z m-729 -9 c-6 -15 -34 -23
-34 -10 0 8 34 34 38 30 1 -2 0 -11 -4 -20z m4291 14 c3 -5 -1 -10 -9 -10 -9
0 -16 5 -16 10 0 6 4 10 9 10 6 0 13 -4 16 -10z m-4175 -24 c0 -16 7 -26 22
-30 18 -4 20 -8 10 -18 -9 -9 -16 -7 -32 10 -21 22 -27 62 -10 62 6 0 10 -11
10 -24z m570 20 c0 -2 -7 -9 -15 -16 -12 -10 -15 -10 -15 4 0 9 7 16 15 16 8
0 15 -2 15 -4z m-630 -16 c0 -5 -10 -10 -22 -10 -19 0 -20 2 -8 10 19 13 30
13 30 0z m110 6 c0 -3 -4 -8 -10 -11 -5 -3 -10 -1 -10 4 0 6 5 11 10 11 6 0
10 -2 10 -4z m-290 -23 c3 -3 -3 -10 -13 -17 -9 -7 -17 -18 -17 -25 0 -6 -4
-11 -10 -11 -16 0 -12 22 8 36 16 13 16 13 0 14 -10 0 -18 5 -18 11 0 9 37 4
50 -8z m328 5 c-2 -6 -10 -14 -16 -16 -7 -2 -10 2 -6 12 7 18 28 22 22 4z
m-208 -23 c0 -8 -7 -15 -16 -15 -14 0 -14 3 -4 15 7 8 14 15 16 15 2 0 4 -7 4
-15z m-60 -16 c0 -5 -4 -9 -10 -9 -5 0 -10 7 -10 16 0 8 5 12 10 9 6 -3 10
-10 10 -16z m110 0 c0 -15 5 -19 15 -15 8 3 15 1 15 -4 0 -10 -13 -14 -35 -11
-7 0 -9 -13 -7 -33 2 -21 -1 -37 -10 -41 -7 -5 -10 -5 -6 -1 3 4 2 21 -4 37
-7 21 -7 38 2 59 14 35 30 39 30 9z m3947 15 c-3 -3 -12 -4 -19 -1 -8 3 -5 6
6 6 11 1 17 -2 13 -5z m-4017 -49 c0 -8 -4 -15 -10 -15 -5 0 -10 7 -10 15 0 8
5 15 10 15 6 0 10 -7 10 -15z m230 5 c0 -5 -4 -10 -10 -10 -5 0 -10 5 -10 10
0 6 5 10 10 10 6 0 10 -4 10 -10z m-90 -15 c0 -8 -2 -15 -4 -15 -2 0 -6 7 -10
15 -3 8 -1 15 4 15 6 0 10 -7 10 -15z m123 -12 c-7 -3 -14 -14 -14 -26 -1 -18
-2 -19 -6 -4 -5 19 16 52 26 41 3 -4 0 -9 -6 -11z m-166 -29 c-9 -9 -28 6 -21
18 4 6 10 6 17 -1 6 -6 8 -13 4 -17z m233 -25 c0 -11 -4 -18 -10 -14 -5 3 -7
12 -3 20 7 21 13 19 13 -6z m-273 -34 c0 -8 -6 -16 -14 -19 -8 -3 -13 2 -13
14 0 11 6 20 13 20 8 0 14 -7 14 -15z m1 -70 c-3 -3 -9 2 -12 12 -6 14 -5 15
5 6 7 -7 10 -15 7 -18z m42 9 c0 -21 -19 -54 -31 -54 -6 0 -7 5 -2 13 8 13 10
18 12 42 1 20 21 19 21 -1z m-70 -19 c0 -8 -7 -15 -15 -15 -8 0 -15 7 -15 15
0 8 7 15 15 15 8 0 15 -7 15 -15z m260 11 c0 -3 -4 -8 -10 -11 -5 -3 -10 -1
-10 4 0 6 5 11 10 11 6 0 10 -2 10 -4z m-155 -34 c0 -18 -20 -15 -23 4 -3 10
1 15 10 12 7 -3 13 -10 13 -16z m-38 -48 c-3 -3 -12 -4 -19 -1 -8 3 -5 6 6 6
11 1 17 -2 13 -5z m167 -63 c3 -4 3 -11 0 -14 -8 -8 -34 3 -34 14 0 11 27 12
34 0z m-8 -88 c-10 -10 -19 5 -10 18 6 11 8 11 12 0 2 -7 1 -15 -2 -18z m64
-3 c0 -5 -4 -10 -10 -10 -5 0 -10 5 -10 10 0 6 5 10 10 10 6 0 10 -4 10 -10z
m2435 -535 c-49 -47 -91 -82 -94 -79 -7 7 172 174 179 167 3 -2 -35 -42 -85
-88z m-185 -168 c0 -2 -10 -12 -22 -23 l-23 -19 19 23 c18 21 26 27 26 19z"/>
<path d="M10153 3283 c9 -2 23 -2 30 0 6 3 -1 5 -18 5 -16 0 -22 -2 -12 -5z"/>
<path d="M10243 3251 c-3 -11 -12 -22 -22 -24 -11 -3 -9 -5 7 -6 13 -1 22 5
22 14 0 8 5 15 10 15 6 0 10 5 10 10 0 18 -22 10 -27 -9z"/>
<path d="M10345 3260 c-3 -5 -2 -10 4 -10 5 0 13 5 16 10 3 6 2 10 -4 10 -5 0
-13 -4 -16 -10z"/>
<path d="M10044 3205 c-18 -14 -18 -14 0 -15 14 0 16 -3 7 -13 -11 -14 -5 -27
12 -27 5 0 7 14 3 31 -5 25 -3 30 10 25 8 -3 12 -2 9 4 -8 14 -18 13 -41 -5z"/>
<path d="M10113 3193 c9 -9 20 -13 24 -9 4 4 1 11 -7 16 -25 16 -35 11 -17 -7z"/>
<path d="M9986 3175 c4 -8 8 -15 10 -15 2 0 4 7 4 15 0 8 -4 15 -10 15 -5 0
-7 -7 -4 -15z"/>
<path d="M10200 3180 c0 -5 4 -10 9 -10 6 0 13 5 16 10 3 6 -1 10 -9 10 -9 0
-16 -4 -16 -10z"/>
<path d="M10090 3170 c0 -5 5 -10 10 -10 6 0 10 5 10 10 0 6 -4 10 -10 10 -5
0 -10 -4 -10 -10z"/>
<path d="M10010 3159 c0 -5 5 -7 10 -4 6 3 10 8 10 11 0 2 -4 4 -10 4 -5 0
-10 -5 -10 -11z"/>
<path d="M10518 3153 c6 -2 18 -2 25 0 6 3 1 5 -13 5 -14 0 -19 -2 -12 -5z"/>
<path d="M9992 3128 c3 -7 24 -14 48 -15 l43 -2 -27 15 c-35 17 -69 18 -64 2z"/>
<path d="M9925 3120 c11 -5 29 -9 40 -9 17 -1 17 1 5 9 -8 5 -26 9 -40 9 -23
0 -23 -1 -5 -9z"/>
<path d="M10157 3116 c-4 -9 0 -13 11 -12 9 2 18 8 20 14 5 17 -25 15 -31 -2z"/>
<path d="M10225 3110 c3 -5 8 -10 11 -10 2 0 4 5 4 10 0 6 -5 10 -11 10 -5 0
-7 -4 -4 -10z"/>
<path d="M10680 3110 c0 -5 5 -10 10 -10 6 0 10 5 10 10 0 6 -4 10 -10 10 -5
0 -10 -4 -10 -10z"/>
<path d="M9867 3090 c-8 -11 -17 -17 -22 -12 -5 4 -5 1 -1 -6 4 -7 18 -10 33
-7 14 2 34 0 44 -6 11 -6 19 -6 19 0 0 5 -12 12 -26 15 -17 5 -24 12 -20 21 8
22 -11 18 -27 -5z"/>
<path d="M10348 3103 c7 -3 16 -2 19 1 4 3 -2 6 -13 5 -11 0 -14 -3 -6 -6z"/>
<path d="M10020 3092 c0 -4 9 -8 19 -8 11 0 17 4 15 8 -3 4 -12 8 -20 8 -8 0
-14 -4 -14 -8z"/>
<path d="M10320 3090 c0 -5 5 -10 11 -10 5 0 7 5 4 10 -3 6 -8 10 -11 10 -2 0
-4 -4 -4 -10z"/>
<path d="M10588 3093 c6 -2 18 -2 25 0 6 3 1 5 -13 5 -14 0 -19 -2 -12 -5z"/>
<path d="M10130 3086 c0 -2 7 -7 16 -10 8 -3 12 -2 9 4 -6 10 -25 14 -25 6z"/>
<path d="M9980 3070 c0 -5 5 -10 11 -10 5 0 7 5 4 10 -3 6 -8 10 -11 10 -2 0
-4 -4 -4 -10z"/>
<path d="M10358 3073 c7 -3 16 -2 19 1 4 3 -2 6 -13 5 -11 0 -14 -3 -6 -6z"/>
<path d="M10405 3070 c-3 -5 -1 -10 4 -10 6 0 11 5 11 10 0 6 -2 10 -4 10 -3
0 -8 -4 -11 -10z"/>
<path d="M10470 3070 c0 -4 9 -10 20 -13 11 -3 20 -2 20 3 0 4 -9 10 -20 13
-11 3 -20 2 -20 -3z"/>
<path d="M10018 3063 c6 -2 18 -2 25 0 6 3 1 5 -13 5 -14 0 -19 -2 -12 -5z"/>
<path d="M10177 3049 c7 -7 15 -10 18 -7 3 3 -2 9 -12 12 -14 6 -15 5 -6 -5z"/>
<path d="M10240 3045 c-14 -8 -20 -14 -14 -15 5 0 19 7 30 15 24 18 16 19 -16
0z"/>
<path d="M10350 3049 c0 -5 5 -7 10 -4 6 3 10 8 10 11 0 2 -4 4 -10 4 -5 0
-10 -5 -10 -11z"/>
<path d="M10408 3048 c-27 -9 -39 -28 -18 -28 6 0 10 6 10 13 0 8 3 8 9 -2 6
-9 16 -11 27 -6 13 5 15 9 6 12 -6 3 -10 9 -6 14 3 5 4 9 2 8 -2 0 -15 -5 -30
-11z"/>
<path d="M10565 3050 c-3 -5 24 -7 61 -6 37 2 60 -1 52 -5 -10 -7 -10 -9 3 -9
8 0 24 6 35 14 17 13 11 15 -63 15 -46 0 -85 -4 -88 -9z"/>
<path d="M10465 3040 c4 -6 11 -8 16 -5 14 9 11 15 -7 15 -8 0 -12 -5 -9 -10z"/>
<path d="M10000 3030 c0 -5 5 -10 11 -10 5 0 7 5 4 10 -3 6 -8 10 -11 10 -2 0
-4 -4 -4 -10z"/>
<path d="M10383 3012 c-13 -2 -23 -10 -23 -18 0 -19 36 -18 44 2 8 20 7 21
-21 16z"/>
<path d="M10294 2991 c3 -5 18 -11 33 -14 26 -5 26 -4 8 9 -21 15 -49 19 -41
5z"/>
<path d="M10420 2990 c0 -5 5 -10 11 -10 5 0 7 5 4 10 -3 6 -8 10 -11 10 -2 0
-4 -4 -4 -10z"/>
<path d="M10510 2991 c-23 -4 -30 -8 -19 -13 19 -8 69 1 69 13 0 5 -3 8 -7 8
-5 -1 -24 -4 -43 -8z"/>
<path d="M10668 2973 c7 -3 16 -2 19 1 4 3 -2 6 -13 5 -11 0 -14 -3 -6 -6z"/>
<path d="M10390 2956 c0 -8 -6 -17 -12 -19 -7 -3 1 -5 17 -5 17 0 24 2 18 5
-23 9 -14 25 10 18 17 -5 19 -4 7 4 -21 15 -40 13 -40 -3z"/>
<path d="M10330 2956 c0 -2 8 -10 18 -17 15 -13 16 -12 3 4 -13 16 -21 21 -21
13z"/>
<path d="M10458 2943 c7 -3 16 -2 19 1 4 3 -2 6 -13 5 -11 0 -14 -3 -6 -6z"/>
<path d="M10505 2928 c-24 -14 -50 -21 -88 -22 -24 -1 -26 -2 -10 -13 22 -17
38 -16 57 3 12 12 16 12 16 2 0 -8 3 -9 8 -2 4 5 18 18 32 27 28 19 16 23 -15
5z"/>
<path d="M10544 2919 c-3 -5 -2 -9 3 -10 4 0 18 -2 31 -5 12 -2 22 0 22 5 0
12 -49 20 -56 10z"/>
<path d="M10320 2910 c0 -6 7 -10 15 -10 8 0 15 2 15 4 0 2 -7 6 -15 10 -8 3
-15 1 -15 -4z"/>
<path d="M10508 2893 c6 -2 18 -2 25 0 6 3 1 5 -13 5 -14 0 -19 -2 -12 -5z"/>
<path d="M10705 2870 c-19 -8 -19 -9 3 -9 12 -1 22 4 22 9 0 6 -1 10 -2 9 -2
0 -12 -4 -23 -9z"/>
<path d="M10754 2854 c-18 -14 -18 -15 4 -4 12 6 22 13 22 15 0 8 -5 6 -26
-11z"/>
<path d="M10550 2849 c0 -5 5 -7 10 -4 6 3 10 8 10 11 0 2 -4 4 -10 4 -5 0
-10 -5 -10 -11z"/>
<path d="M10495 2830 c-3 -5 -1 -10 4 -10 6 0 11 5 11 10 0 6 -2 10 -4 10 -3
0 -8 -4 -11 -10z"/>
<path d="M10773 2827 l-23 -10 26 -13 c18 -10 31 -11 43 -4 13 7 10 9 -14 10
-22 0 -26 3 -15 10 21 13 9 19 -17 7z"/>
<path d="M10590 2776 c0 -2 7 -9 15 -16 12 -10 15 -10 15 4 0 9 -7 16 -15 16
-8 0 -15 -2 -15 -4z"/>
<path d="M10717 2769 c7 -7 15 -10 18 -7 3 3 -2 9 -12 12 -14 6 -15 5 -6 -5z"/>
<path d="M2292 4003 c-40 -14 -71 -27 -69 -29 4 -4 147 43 155 51 9 9 -12 4
-86 -22z"/>
<path d="M2045 3901 c-2 -5 -26 -14 -52 -21 -64 -18 -508 -170 -660 -227 -68
-25 -120 -49 -117 -54 3 -5 -2 -6 -10 -3 -8 3 -106 -27 -218 -66 -112 -40
-356 -126 -543 -192 -187 -66 -364 -127 -392 -136 l-53 -15 0 -1594 0 -1593
591 0 c324 0 588 4 585 8 -2 4 4 19 15 32 15 20 19 22 19 8 0 -10 5 -18 11
-18 6 0 9 -7 5 -15 -5 -13 276 -15 2491 -15 l2497 0 -130 85 c-71 47 -154 102
-184 122 -30 21 -58 40 -64 42 -10 4 -180 118 -271 182 -27 20 -102 71 -165
114 -63 43 -151 103 -195 134 -44 30 -96 65 -115 78 -19 12 -42 29 -50 36 -13
12 -522 365 -700 485 -36 24 -74 52 -86 63 -11 10 -24 19 -28 19 -4 0 -27 16
-50 35 -24 19 -50 35 -58 35 -9 0 -23 11 -32 25 -21 32 -35 32 -29 1 3 -13 0
-27 -6 -30 -7 -5 -11 2 -11 18 0 14 1 28 3 30 4 8 -38 48 -67 63 -28 15 -31
14 -48 -7 -18 -22 -19 -22 -40 -4 -21 19 -21 19 -13 -1 13 -32 12 -70 -3 -67
-6 1 -11 -3 -10 -9 2 -6 -2 -13 -7 -15 -13 -5 -14 35 -2 54 5 6 4 12 -2 12
-13 0 -23 -34 -23 -76 0 -29 -3 -34 -24 -34 -13 0 -24 5 -24 10 0 6 5 10 10
10 12 0 13 10 1 29 -8 12 -12 12 -25 2 -8 -7 -21 -9 -27 -5 -7 4 -9 3 -5 -4 3
-6 -5 -23 -19 -37 -19 -22 -22 -31 -14 -46 13 -25 5 -36 -31 -44 -17 -4 -35
-15 -41 -26 -5 -11 -15 -16 -21 -13 -7 4 -8 2 -4 -5 4 -6 2 -19 -5 -28 -12
-14 -14 -12 -20 17 -8 37 -2 63 13 54 15 -9 48 37 47 65 l-1 26 -7 -24 c-8
-31 -24 -36 -44 -16 -15 14 -17 13 -28 -6 -10 -19 -9 -21 5 -16 17 7 20 -1 10
-27 -3 -8 -13 -12 -22 -9 -14 4 -14 3 -3 -5 16 -12 7 -67 -10 -56 -6 3 -10 0
-8 -7 7 -52 -18 -69 -27 -19 -4 17 -11 30 -16 30 -5 0 -7 -13 -3 -29 5 -23 2
-29 -14 -34 -16 -4 -21 0 -21 13 0 10 6 21 13 23 7 3 8 6 1 6 -14 1 -64 -37
-64 -49 0 -5 6 -7 14 -4 17 7 30 -26 16 -40 -8 -8 -9 -6 -5 7 5 11 2 17 -8 17
-25 0 -42 27 -27 45 7 9 8 15 2 15 -5 0 -15 -13 -20 -29 -8 -23 -7 -32 4 -42
12 -10 10 -16 -18 -40 -18 -16 -35 -28 -38 -29 -10 0 -10 49 0 55 6 3 10 14
10 23 0 15 -2 15 -10 2 -8 -13 -10 -13 -10 2 0 9 5 29 10 43 9 23 8 26 -6 21
-8 -3 -18 -6 -20 -6 -2 0 -4 -10 -4 -21 0 -12 -9 -37 -21 -55 -21 -34 -38 -45
-35 -21 2 24 -19 19 -32 -7 -7 -14 -17 -26 -23 -26 -11 0 -12 23 -2 34 4 3 8
12 9 19 1 7 5 21 9 32 6 16 3 15 -13 -5 -11 -13 -18 -29 -15 -35 4 -5 3 -7 -2
-3 -4 4 -14 3 -20 -2 -9 -8 -14 -6 -19 5 -3 9 -10 13 -16 10 -7 -4 -4 -17 7
-35 11 -20 19 -26 24 -18 5 7 11 9 15 5 4 -4 -1 -15 -10 -26 -11 -12 -14 -21
-7 -26 14 -8 14 -25 0 -25 -6 0 -13 9 -16 20 -3 11 -9 20 -14 20 -5 0 -9 8 -9
18 0 14 -2 15 -10 2 -6 -9 -5 -17 3 -22 9 -5 9 -10 0 -19 -9 -9 -5 -17 14 -35
25 -23 25 -24 4 -24 -14 0 -21 -6 -21 -20 0 -11 -4 -20 -9 -20 -4 0 -8 16 -7
36 1 22 -4 39 -11 41 -7 3 -13 -2 -13 -11 0 -9 -3 -15 -7 -15 -22 4 -33 -3
-33 -18 0 -13 -3 -14 -11 -6 -9 9 -6 19 10 41 11 17 21 37 21 46 0 8 10 21 22
27 13 7 18 14 11 16 -18 6 -44 -26 -82 -101 -27 -52 -39 -66 -53 -63 -11 3
-20 -2 -23 -14 -4 -10 -13 -19 -21 -19 -8 0 -14 -8 -15 -17 0 -10 -3 -13 -5
-6 -3 6 2 23 12 38 14 21 14 24 1 20 -10 -4 -17 3 -22 22 -5 15 -7 33 -6 38 0
6 -6 1 -14 -9 -8 -11 -15 -33 -15 -48 0 -16 -7 -31 -15 -34 -9 -4 -13 -17 -11
-40 3 -38 1 -40 -19 -20 -8 7 -11 23 -8 35 3 12 1 21 -6 21 -17 0 -49 -59 -44
-79 2 -10 -3 -23 -11 -30 -14 -12 -16 -10 -16 10 0 13 7 32 15 43 9 12 12 30
8 50 -6 28 -5 30 11 17 9 -8 19 -11 22 -8 9 9 -5 27 -22 27 -8 0 -14 5 -14 10
0 6 -6 10 -14 10 -8 0 -16 3 -19 8 -2 4 -1 0 2 -8 13 -37 5 -90 -19 -115 -23
-24 -47 -35 -35 -15 3 6 1 10 -5 10 -6 0 -15 10 -20 22 -8 20 -9 18 -8 -12 1
-20 -2 -41 -6 -48 -10 -17 -33 -15 -44 4 -8 15 -11 15 -34 0 -23 -15 -26 -15
-31 -1 -8 20 -33 19 -42 -3 -7 -16 -8 -15 -15 3 -6 16 -9 17 -12 5 -3 -8 -10
-30 -16 -49 -11 -31 -5 -63 5 -33 3 6 11 12 19 12 7 0 16 11 20 25 6 26 18 32
28 16 9 -13 -4 -41 -18 -41 -7 0 -19 -11 -26 -25 -7 -14 -17 -25 -21 -25 -14
0 -29 38 -23 54 10 25 -8 19 -32 -11 -12 -16 -25 -25 -28 -22 -7 7 16 69 26
69 4 0 8 5 8 10 0 28 -28 4 -49 -42 -13 -28 -34 -63 -47 -77 -16 -17 -22 -32
-18 -47 3 -12 1 -25 -4 -28 -6 -4 -8 2 -5 14 5 21 -11 28 -22 10 -4 -6 -11 -8
-16 -4 -6 4 -1 16 12 30 22 24 22 24 3 38 -17 13 -20 12 -27 -12 -10 -35 -15
-55 -16 -67 -1 -5 -17 -21 -35 -33 -31 -21 -34 -26 -24 -48 13 -28 1 -47 -13
-21 -6 9 -14 15 -20 12 -5 -4 -9 1 -9 9 0 10 -9 16 -25 16 -33 0 -32 14 2 29
21 10 28 9 35 -1 6 -10 13 -8 28 10 11 13 24 21 29 18 5 -3 12 1 15 10 9 24 8
26 -16 22 -20 -3 -23 2 -24 30 -1 28 2 33 18 29 14 -4 18 -2 14 10 -3 8 -6 17
-6 19 0 2 -6 4 -14 4 -7 0 -17 -10 -21 -22 -13 -39 -15 -78 -5 -78 14 0 12
-28 -2 -33 -36 -11 -67 30 -37 49 6 3 9 15 6 25 -3 11 -1 19 4 19 5 0 9 7 9
15 0 8 -4 15 -9 15 -13 0 -27 -34 -38 -92 -3 -16 -11 -28 -18 -28 -7 0 -16 -6
-19 -12 -5 -10 -7 -10 -12 0 -3 6 -9 12 -14 12 -9 0 -6 -77 4 -87 9 -10 7 -23
-4 -23 -5 0 -12 16 -16 35 -8 43 -20 53 -30 23 -4 -13 -2 -24 5 -26 11 -4 16
-42 6 -42 -3 0 -14 9 -25 20 -24 24 -19 42 32 97 43 49 45 54 20 76 -21 19
-38 11 -21 -9 8 -10 6 -21 -7 -44 -20 -34 -29 -37 -38 -15 -3 8 -10 15 -16 15
-7 0 -7 -7 1 -21 8 -17 8 -32 -1 -63 -7 -23 -14 -47 -16 -53 -7 -25 -26 -13
-22 12 8 39 -7 39 -28 0 -21 -40 -34 -44 -53 -14 -11 19 -11 21 2 16 9 -3 21
1 27 9 10 11 9 14 -6 14 -16 0 -16 2 4 16 18 13 21 19 11 30 -8 10 -15 11 -24
4 -6 -5 -15 -7 -18 -3 -4 3 -7 -5 -7 -18 0 -14 -9 -32 -19 -41 -17 -14 -18
-22 -10 -58 7 -30 6 -46 -2 -56 -15 -19 -33 -18 -25 1 3 8 9 22 13 32 4 11 3
14 -6 9 -6 -4 -10 -4 -9 1 2 4 -1 10 -7 12 -5 2 -16 -9 -24 -24 l-14 -29 -17
22 c-16 19 -19 20 -36 6 -14 -11 -15 -17 -6 -20 21 -9 13 -24 -13 -24 -27 0
-34 23 -12 37 20 11 29 53 11 46 -8 -3 -14 0 -14 6 0 6 5 11 10 11 6 0 10 5
10 12 0 6 7 20 17 30 12 13 13 18 3 18 -7 0 -26 -14 -41 -31 -22 -25 -27 -38
-22 -63 5 -25 3 -29 -8 -18 -21 20 -32 14 -25 -14 5 -20 3 -27 -14 -31 -11 -3
-20 -11 -20 -18 0 -16 -35 -47 -43 -38 -11 10 -8 35 3 28 6 -3 10 -1 10 5 0 6
11 21 25 34 14 13 28 38 32 56 5 29 4 32 -12 27 -14 -6 -17 -3 -13 16 3 18 0
24 -11 23 -11 -1 -15 6 -14 21 l3 23 -23 -23 c-19 -19 -22 -20 -25 -5 -5 24
-42 19 -42 -6 0 -11 3 -16 7 -13 3 4 12 2 20 -5 10 -8 17 -8 25 0 7 7 16 12
20 12 10 0 10 -51 0 -67 -12 -18 -52 -4 -52 18 0 11 -7 19 -15 19 -9 0 -15 -9
-15 -24 0 -27 -14 -41 -30 -31 -6 4 -5 15 2 30 8 19 8 28 -3 41 -8 9 -13 25
-11 34 4 23 -27 35 -35 14 -3 -9 -1 -26 6 -37 9 -13 9 -23 2 -30 -13 -13 -35
39 -28 65 3 11 0 18 -8 18 -7 0 -16 6 -19 13 -3 6 -3 -3 0 -22 6 -31 4 -33
-15 -28 -14 3 -21 0 -21 -9 0 -8 5 -14 10 -14 6 0 10 -9 10 -20 0 -23 -10 -26
-28 -8 -15 15 -24 6 -16 -16 3 -9 14 -16 23 -16 10 0 21 -14 28 -37 6 -21 10
-39 9 -40 -8 -8 -46 32 -46 48 0 10 -7 19 -15 19 -8 0 -15 7 -15 15 0 24 -19
17 -26 -10 -3 -13 -12 -29 -20 -36 -21 -18 -30 18 -10 40 15 16 15 19 1 24 -8
4 -15 17 -16 29 0 13 -3 17 -6 11 -8 -22 -19 -14 -37 27 -20 47 -29 49 -44 15
-6 -14 -16 -25 -21 -25 -5 0 -7 -9 -4 -19 3 -10 -1 -29 -7 -41 -9 -17 -9 -24
-1 -29 18 -11 -6 -70 -27 -67 -22 4 -29 36 -8 36 9 0 16 7 16 15 0 8 -6 12
-14 9 -8 -3 -23 3 -32 15 -10 11 -21 18 -26 15 -17 -11 -48 8 -48 29 0 29 -10
43 -38 52 -23 7 -25 15 -8 56 4 9 1 23 -6 30 -8 8 -17 22 -21 32 -5 13 -1 17
18 17 27 0 31 11 15 41 -15 26 -30 24 -30 -6 0 -13 -8 -28 -17 -34 -15 -8 -15
-14 -5 -48 11 -35 6 -50 -15 -41 -11 5 -14 58 -4 76 6 11 5 24 -1 35 -9 18
-10 18 -23 0 -10 -13 -10 -20 -2 -26 7 -6 5 -6 -7 -3 -11 4 -23 1 -28 -6 -5
-9 -8 -6 -8 9 0 12 6 23 13 26 6 2 0 8 -15 12 -18 5 -28 14 -28 26 0 10 -9 28
-20 39 -25 25 -25 33 0 25 22 -7 26 5 8 23 -20 20 1 26 22 7 11 -10 20 -30 20
-45 0 -29 25 -59 38 -45 4 4 1 10 -5 12 -15 5 -18 63 -3 63 5 0 14 -8 19 -17
8 -15 10 -12 8 15 -1 19 -7 30 -13 28 -6 -2 -24 2 -39 10 -15 8 -39 13 -53 12
-34 -4 -39 19 -8 33 27 13 37 33 11 23 -8 -4 -15 -1 -15 5 0 6 6 11 13 11 6 0
17 11 24 25 10 22 9 25 -8 25 -25 0 -24 22 1 45 11 10 17 22 14 26 -8 14 -51
10 -67 -6 -8 -8 -17 -12 -20 -9 -6 6 -99 -37 -109 -51 -4 -5 -8 -7 -8 -3 0 4
-37 -8 -82 -28 -44 -19 -86 -33 -92 -31 -10 3 167 112 264 161 60 31 81 46 63
46 -7 0 -15 -5 -18 -11 -4 -6 -19 -7 -38 -3 -18 4 -40 7 -50 6 -15 -1 -16 2
-7 14 7 8 19 14 26 14 8 0 14 5 14 10 0 6 -9 10 -20 10 -11 0 -20 7 -20 15 0
8 -5 15 -11 15 -8 0 -8 5 1 15 14 17 50 21 50 5 0 -5 -7 -13 -16 -18 -13 -8
-10 -10 16 -14 39 -6 49 12 26 47 -21 31 -20 32 8 39 19 5 23 11 19 27 -6 20
-7 20 -18 5 -13 -17 -35 -22 -35 -7 0 5 6 12 13 14 9 4 9 6 0 6 -7 1 -13 6
-13 12 0 6 7 8 16 5 10 -4 25 1 35 10 23 21 26 42 3 23 -13 -10 -17 -10 -25 2
-5 8 -9 11 -9 6 0 -4 -11 0 -25 9 -29 19 -24 39 6 24 28 -16 24 5 -7 29 -24
19 -25 23 -15 52 14 41 14 44 -4 29 -9 -7 -19 -10 -22 -6 -12 11 20 26 41 20
14 -5 18 -2 13 9 -3 9 -1 17 5 19 15 5 -14 64 -30 60 -25 -5 -11 29 15 39 l28
10 -22 17 c-15 11 -20 22 -14 30 6 10 10 10 20 -2 14 -17 27 -9 48 28 13 23
43 30 43 10 0 -21 20 -17 28 5 4 11 12 20 17 21 26 1 43 12 48 30 3 11 14 20
24 20 37 0 67 62 36 74 -22 9 -16 39 7 33 11 -3 18 -2 15 3 -3 4 2 13 10 20 8
7 15 18 15 26 0 12 35 12 48 -1 8 -7 32 16 32 31 0 10 -6 11 -26 4 -34 -13
-47 -4 -33 22 10 18 13 19 23 7 6 -8 22 -14 36 -14 20 0 26 6 28 29 3 26 2 28
-12 17 -20 -17 -20 -7 0 24 21 32 32 32 31 0 0 -33 9 -41 28 -25 12 10 15 9
16 -6 0 -11 3 -14 6 -6 6 15 33 16 33 1 0 -6 7 -4 15 5 20 19 19 23 -5 29 -21
5 -37 33 -26 44 3 3 14 -1 24 -11 19 -16 52 -13 52 5 0 5 6 9 13 9 7 0 18 9
25 21 12 19 12 20 -10 13 -13 -4 -31 -16 -40 -26 -17 -20 -17 -20 -39 1 -13
12 -18 21 -13 21 6 0 15 -5 21 -11 8 -8 19 -5 39 15 21 19 26 28 17 37 -6 6
-9 18 -6 25 6 16 33 19 33 5 0 -10 38 -7 48 4 3 2 11 -3 18 -13 7 -9 14 -12
14 -6 0 7 9 14 21 17 11 3 23 15 26 26 3 12 11 21 19 21 7 0 18 8 24 18 11 16
11 16 6 0 -3 -10 -2 -18 2 -18 16 0 102 70 102 84 0 3 -9 6 -20 6 -11 0 -20 5
-20 10 0 12 10 13 29 1 9 -6 22 -6 34 0 13 8 23 7 34 -3 15 -12 15 -11 3 11
-11 21 -10 23 3 18 11 -4 18 1 22 15 5 14 10 17 18 9 7 -7 6 -15 -4 -28 -8 -9
5 -2 29 17 24 19 42 42 42 54 0 16 3 17 12 8 10 -10 10 -17 0 -32 -22 -35 -13
-35 13 0 19 25 22 36 13 40 -15 6 -22 30 -9 30 5 0 11 -5 13 -10 2 -7 16 -6
40 4 40 17 68 13 68 -10 0 -8 5 -14 11 -14 6 0 9 9 6 20 -3 11 -1 20 4 20 6 0
9 7 7 16 -2 10 2 19 9 21 6 2 12 -4 12 -14 2 -57 6 -71 18 -66 7 3 15 14 19
25 3 11 12 17 20 14 8 -3 14 -1 14 4 0 6 -9 10 -20 10 -11 0 -20 -4 -20 -10 0
-5 -5 -10 -11 -10 -6 0 -8 7 -5 16 3 9 -4 25 -19 40 -29 29 -21 31 20 4 38
-25 45 -25 45 -1 0 14 6 19 23 18 29 -2 45 -17 39 -39 -3 -12 1 -18 12 -18 12
0 14 5 6 24 -6 16 -4 30 5 43 8 11 11 24 7 28 -4 5 -1 5 6 1 7 -5 11 -15 8
-23 -3 -8 -2 -11 4 -8 12 7 50 -25 50 -43 0 -7 5 -10 10 -7 6 4 7 11 4 17 -4
6 -3 8 2 5 6 -3 16 -2 24 4 11 6 11 9 3 10 -7 1 -17 3 -23 4 -5 1 -16 3 -23 4
-7 0 -13 11 -14 23 -1 11 -7 24 -13 28 -8 5 -7 9 4 13 9 4 16 2 16 -3 0 -6 5
-10 10 -10 21 0 9 28 -15 34 -28 7 -36 46 -9 46 11 0 14 -6 9 -21 -5 -15 -3
-20 6 -17 8 3 16 18 20 34 4 24 6 26 11 9 3 -11 4 -44 4 -72 -1 -29 1 -53 5
-53 4 0 14 -3 22 -6 12 -4 14 0 10 18 -4 13 -10 26 -16 29 -12 8 48 76 68 76
8 0 15 -9 15 -19 0 -16 3 -17 21 -7 16 8 20 8 14 -1 -8 -13 22 -40 45 -39 8 0
5 4 -8 9 -19 8 -21 13 -12 29 8 16 6 22 -7 31 -16 9 -15 10 7 8 17 -2 24 -8
22 -20 -1 -9 3 -20 9 -24 8 -4 9 -3 5 4 -4 7 -1 12 9 12 9 0 13 5 10 10 -3 6
-2 10 4 10 5 0 12 -8 14 -17 3 -11 5 -6 6 12 2 28 3 29 11 8 5 -13 14 -23 19
-23 13 0 7 45 -9 64 -11 14 -10 15 12 4 34 -19 78 -54 78 -65 0 -5 14 -14 31
-20 29 -11 31 -14 18 -30 -13 -16 -12 -17 3 -5 9 8 22 11 28 7 5 -3 10 -4 10
-2 0 4 -418 324 -623 477 -231 172 -404 312 -270 218 34 -23 149 -106 255
-183 445 -322 550 -395 560 -389 6 4 8 2 4 -4 -8 -13 10 -26 24 -17 8 5 7 12
-2 23 -7 10 -8 14 -4 10 5 -4 15 0 22 10 8 9 14 12 14 5 0 -6 -5 -15 -12 -19
-7 -5 -4 -10 11 -15 17 -7 20 -14 15 -36 l-6 -28 21 25 c17 20 21 22 21 8 0
-10 5 -18 10 -18 6 0 10 5 10 10 0 6 5 10 12 10 6 0 3 -9 -7 -20 -18 -19 -17
-20 3 -20 13 0 22 6 22 15 0 8 8 15 18 15 13 0 14 -2 3 -9 -10 -7 -10 -10 -1
-16 14 -9 32 14 25 33 -3 7 0 10 6 7 5 -4 17 -1 26 7 14 11 16 11 11 -3 -4 -9
-2 -21 4 -27 8 -8 8 -16 -2 -27 -10 -12 -10 -15 4 -15 9 0 16 7 16 15 0 9 8
19 18 22 9 4 22 14 29 22 11 14 12 14 13 -1 0 -9 -6 -23 -13 -30 -7 -7 -16
-21 -20 -32 -5 -12 -13 -16 -23 -12 -14 6 -15 4 -4 -9 9 -11 15 -12 20 -5 4 6
13 10 21 8 9 -2 13 5 11 20 -2 20 1 22 20 17 13 -3 18 -3 13 2 -14 11 -17 53
-3 53 5 0 12 -9 15 -20 7 -25 23 -26 23 -2 1 14 5 12 25 -10 21 -25 45 -23 30
2 -3 6 1 7 9 4 9 -3 16 -11 16 -18 0 -6 5 -4 11 4 7 10 12 11 15 4 6 -15 103
4 127 24 16 15 18 14 24 -6 3 -12 10 -19 17 -15 7 4 7 1 -1 -7 -10 -10 -15
-11 -27 -1 -9 8 -16 8 -20 2 -4 -6 3 -15 15 -21 17 -10 25 -8 45 11 18 17 24
19 24 7 0 -18 -34 -51 -43 -41 -4 3 -7 2 -7 -4 0 -21 15 -22 37 -1 25 23 33 9
8 -16 -9 -9 -11 -17 -5 -21 5 -3 10 -2 10 4 0 5 7 17 17 26 14 14 14 18 2 26
-9 6 -10 12 -4 17 6 4 11 16 13 26 4 19 25 46 37 46 3 0 -2 -11 -11 -25 -9
-14 -13 -25 -9 -25 4 0 2 -7 -5 -15 -16 -19 -3 -38 25 -33 18 4 21 1 17 -14
-5 -21 -13 -23 -30 -6 -7 7 -12 8 -12 3 0 -6 12 -18 25 -28 24 -18 25 -17 25
3 0 12 4 19 9 15 16 -9 24 15 11 30 -10 13 -8 15 14 13 21 -2 26 -7 26 -30 0
-15 4 -28 8 -28 5 0 7 12 4 28 -3 21 3 32 28 51 18 12 38 24 46 25 30 4 13 21
-23 24 -36 3 -37 2 -18 -12 20 -15 19 -15 -5 -16 -21 0 -25 5 -27 35 -3 40 -1
42 23 18 16 -16 18 -16 34 5 23 28 33 28 25 0 -5 -19 -3 -18 10 4 10 19 21 26
33 22 14 -5 15 -4 2 5 -17 12 -74 15 -66 3 2 -4 1 -14 -4 -21 -6 -11 -12 -11
-30 2 -12 8 -17 18 -12 21 6 3 12 0 15 -6 7 -21 16 -5 18 33 3 43 9 55 20 38
4 -8 3 -19 -3 -26 -8 -10 -6 -13 6 -13 15 0 20 13 17 50 0 10 1 11 5 3 3 -7
10 -13 15 -13 6 0 7 5 4 10 -3 6 -1 10 4 10 14 0 14 -17 1 -25 -18 -11 -10
-42 15 -59 22 -14 25 -15 25 -1 0 8 8 15 17 15 13 0 14 -3 5 -12 -17 -17 -15
-28 4 -28 10 0 14 -6 10 -15 -4 -11 1 -15 17 -15 18 0 19 2 7 10 -10 7 -11 13
-5 18 12 8 13 22 1 40 -4 7 -3 19 4 27 10 11 10 18 1 29 -15 18 -49 27 -57 14
-7 -11 27 -39 38 -32 5 3 8 1 8 -5 0 -16 -18 -22 -23 -9 -4 10 -8 9 -17 -2
-10 -13 -11 -12 -6 3 3 10 0 20 -8 23 -7 3 -13 16 -13 30 0 16 4 23 12 21 19
-8 40 10 41 35 1 13 2 31 3 41 0 9 8 17 16 17 9 0 12 -6 9 -17 -4 -13 -3 -14
3 -5 9 12 30 1 255 -135 29 -17 87 -51 128 -74 41 -23 88 -51 103 -62 16 -10
30 -17 33 -14 3 2 -37 29 -88 59 -51 31 -142 86 -203 123 -60 37 -205 125
-321 196 -116 70 -387 238 -602 371 -496 307 -700 429 -707 419z m-579 -483
l19 -21 -27 18 c-29 18 -34 25 -20 25 5 0 17 -10 28 -22z m1942 -357 c10 -6 9
-11 -4 -22 -16 -12 -17 -12 -11 3 3 9 1 19 -6 22 -7 2 -7 5 -2 5 6 0 16 -3 23
-8z m-98 -96 c0 -8 -2 -15 -4 -15 -2 0 -6 7 -10 15 -3 8 -1 15 4 15 6 0 10 -7
10 -15z m-243 -41 c-3 -3 -12 -4 -19 -1 -8 3 -5 6 6 6 11 1 17 -2 13 -5z m80
-10 c-3 -3 -12 -4 -19 -1 -8 3 -5 6 6 6 11 1 17 -2 13 -5z m63 -18 c0 -11 -19
-15 -25 -6 -3 5 1 10 9 10 9 0 16 -2 16 -4z m42 -18 c-7 -7 -12 -8 -12 -2 0 6
3 14 7 17 3 4 9 5 12 2 2 -3 -1 -11 -7 -17z m-382 8 c0 -2 -8 -10 -17 -17 -16
-13 -17 -12 -4 4 13 16 21 21 21 13z m245 -24 c-6 -4 -16 -20 -23 -36 -11 -24
-15 -27 -23 -15 -5 7 -8 25 -8 39 1 17 3 19 6 8 7 -26 22 -22 29 8 5 19 9 23
18 14 7 -7 7 -13 1 -18z m91 -12 c8 0 12 -5 9 -10 -5 -8 -11 -8 -19 -1 -7 6
-16 8 -19 4 -4 -3 -7 5 -7 18 1 21 2 22 11 7 5 -10 17 -18 25 -18z m164 14 c0
-8 -5 -12 -10 -9 -6 4 -8 11 -5 16 9 14 15 11 15 -7z m-337 -33 c3 -14 -7 -29
-36 -52 -39 -31 -42 -26 -8 13 9 10 16 22 16 26 0 8 15 32 19 32 2 0 6 -9 9
-19z m-403 0 c0 -5 -7 -11 -14 -14 -10 -4 -13 -1 -9 9 6 15 23 19 23 5z m491
-18 c-12 -20 -14 -14 -5 12 4 9 9 14 11 11 3 -2 0 -13 -6 -23z m309 17 c0 -5
-5 -10 -11 -10 -5 0 -7 5 -4 10 3 6 8 10 11 10 2 0 4 -4 4 -10z m-1040 -10 c0
-5 -7 -10 -16 -10 -8 0 -12 5 -9 10 3 6 10 10 16 10 5 0 9 -4 9 -10z m801 -58
c31 -36 36 -52 16 -52 -7 0 -19 16 -27 35 -7 19 -19 36 -26 39 -7 3 -11 13 -9
23 5 28 7 29 12 8 3 -11 18 -35 34 -53z m-1 53 c5 3 11 1 14 -4 4 -5 -2 -8
-11 -7 -9 2 -18 8 -19 15 -1 6 0 7 3 1 2 -5 9 -8 13 -5z m-424 -4 c-4 -5 -1
-12 4 -14 6 -3 5 -4 -2 -3 -15 3 -23 26 -8 26 6 0 9 -4 6 -9z m-726 -11 c0 -5
-5 -10 -11 -10 -5 0 -7 5 -4 10 3 6 8 10 11 10 2 0 4 -4 4 -10z m502 -34 c-4
-7 -8 -5 -10 7 -2 9 -8 17 -13 17 -5 0 -9 5 -9 12 0 6 8 3 20 -7 11 -10 16
-23 12 -29z m165 19 c-15 -16 -19 -13 -11 9 3 9 10 13 15 10 5 -3 3 -11 -4
-19z m353 4 c0 -12 -29 -38 -42 -39 -5 0 -8 7 -8 15 0 8 7 15 15 15 8 0 15 5
15 10 0 6 5 10 10 10 6 0 10 -5 10 -11z m-470 -9 c0 -5 -5 -10 -11 -10 -5 0
-7 5 -4 10 3 6 8 10 11 10 2 0 4 -4 4 -10z m-470 -25 c-7 -8 -17 -12 -22 -9
-5 3 -1 12 9 19 22 17 30 11 13 -10z m125 15 c3 -5 -1 -10 -9 -10 -9 0 -16 5
-16 10 0 6 4 10 9 10 6 0 13 -4 16 -10z m260 0 c-3 -5 -11 -10 -16 -10 -6 0
-7 5 -4 10 3 6 11 10 16 10 6 0 7 -4 4 -10z m402 -25 c0 -8 -4 -15 -9 -15 -10
0 -11 14 -1 23 9 10 10 9 10 -8z m253 1 c0 -8 6 -16 13 -19 6 -2 9 -8 4 -12
-4 -5 -16 1 -27 13 -24 25 -25 32 -5 32 8 0 15 -6 15 -14z m-1280 -126 c0 -21
-15 -27 -25 -10 -7 12 2 30 16 30 5 0 9 -9 9 -20z m-564 -292 c-9 -5 -22 -7
-29 -4 -7 2 -4 5 6 5 9 1 17 6 17 12 0 5 5 7 11 3 8 -5 6 -10 -5 -16z m-109
-54 c3 -9 0 -20 -8 -25 -21 -13 -29 -11 -23 6 4 8 1 15 -5 15 -7 0 -14 -7 -17
-15 -9 -23 -33 -19 -27 4 3 12 16 22 32 24 14 2 30 5 34 6 4 0 10 -6 14 -15z
m-157 -54 c0 -5 -4 -10 -9 -10 -6 0 -13 5 -16 10 -3 6 1 10 9 10 9 0 16 -4 16
-10z m-50 -29 c0 -5 -9 -12 -19 -16 -13 -4 -18 -12 -15 -23 5 -14 4 -15 -5 -2
-17 24 -13 38 12 43 12 2 23 5 25 6 1 0 2 -3 2 -8z m-53 -41 c3 -11 10 -20 15
-20 5 0 6 -5 2 -12 -5 -8 -13 -4 -26 11 -20 26 -23 41 -7 41 6 0 13 -9 16 -20z
m-57 -30 c-18 -11 -24 -6 -16 16 5 14 9 15 19 5 9 -9 9 -14 -3 -21z m87 -36
c-3 -3 -12 -4 -19 -1 -8 3 -5 6 6 6 11 1 17 -2 13 -5z m-277 -204 c0 -5 -4
-10 -10 -10 -5 0 -10 5 -10 10 0 6 5 10 10 10 6 0 10 -4 10 -10z m28 -38 c-7
-10 -14 -19 -15 -21 -3 -4 2 28 6 47 1 2 6 0 11 -3 8 -5 7 -12 -2 -23z m-289
-298 c-14 -18 -24 -11 -15 11 3 9 11 13 16 10 8 -5 7 -11 -1 -21z m3519 -59
c-7 -9 -19 -22 -26 -30 -10 -11 -10 -15 -2 -15 8 0 10 -9 5 -27 -4 -16 -8 -37
-10 -48 -1 -11 -3 -24 -4 -28 0 -5 -5 -5 -11 -2 -13 8 -13 58 1 72 7 7 8 17 1
29 -12 26 0 70 20 66 9 -1 19 6 23 15 8 17 8 17 12 1 2 -10 -2 -24 -9 -33z
m42 1 c0 -8 -4 -18 -10 -21 -5 -3 -10 3 -10 14 0 12 5 21 10 21 6 0 10 -6 10
-14z m-3560 -10 c0 -3 -4 -8 -10 -11 -5 -3 -10 -1 -10 4 0 6 5 11 10 11 6 0
10 -2 10 -4z m3456 -65 c-4 -6 -14 -11 -22 -11 -17 0 -19 -30 -1 -30 6 0 4 -5
-5 -11 -10 -5 -18 -19 -18 -29 0 -11 -4 -20 -9 -20 -5 0 -7 9 -4 20 4 16 2 19
-11 14 -11 -4 -16 -1 -16 11 0 11 5 15 15 11 9 -3 15 0 15 9 0 22 42 67 53 56
5 -5 6 -14 3 -20z m182 13 c-3 -19 27 -42 39 -31 4 5 1 12 -7 17 -13 8 -13 10
1 10 23 0 30 -11 17 -28 -10 -11 -9 -17 3 -26 9 -6 14 -17 12 -23 -6 -18 17
-16 39 4 28 25 21 -1 -8 -30 -15 -16 -24 -33 -20 -42 3 -8 1 -15 -4 -15 -6 0
-10 3 -11 8 0 4 -2 17 -3 28 -3 30 -38 71 -56 66 -12 -4 -13 -2 -3 9 10 10 10
16 -3 30 -9 10 -13 23 -9 28 9 16 16 13 13 -5z m-3638 -4 c0 -5 -5 -10 -11
-10 -5 0 -7 5 -4 10 3 6 8 10 11 10 2 0 4 -4 4 -10z m3540 1 c0 -5 -7 -11 -15
-15 -15 -5 -20 5 -8 17 9 10 23 9 23 -2z m-215 -20 c-3 -11 -1 -22 5 -26 6 -4
9 -13 6 -21 -3 -7 -1 -16 4 -19 15 -9 12 -42 -4 -42 -8 0 -12 6 -8 15 3 9 1
13 -5 9 -13 -8 -51 19 -41 29 4 4 14 1 22 -5 12 -10 14 -9 9 8 -5 22 3 71 13
71 3 0 3 -9 -1 -19z m235 -11 c0 -5 -5 -10 -11 -10 -5 0 -7 5 -4 10 3 6 8 10
11 10 2 0 4 -4 4 -10z m26 -17 c-10 -10 -19 5 -10 18 6 11 8 11 12 0 2 -7 1
-15 -2 -18z m-66 7 c0 -5 -7 -10 -16 -10 -8 0 -12 5 -9 10 3 6 10 10 16 10 5
0 9 -4 9 -10z m76 -55 c-3 -8 -13 -15 -23 -15 -17 1 -17 1 0 14 9 7 17 19 18
27 0 11 2 11 6 1 3 -7 2 -19 -1 -27z m184 1 c0 -3 -4 -8 -10 -11 -5 -3 -10 -1
-10 4 0 6 5 11 10 11 6 0 10 -2 10 -4z m-3763 -27 c-4 -15 -2 -19 9 -15 16 6
19 -19 3 -30 -18 -10 -32 13 -25 40 3 14 9 26 12 26 4 0 4 -9 1 -21z m3291
-35 c1 -13 -3 -26 -8 -29 -9 -5 -15 23 -11 48 0 4 -4 7 -10 7 -5 0 -7 4 -4 10
9 15 31 -9 33 -36z m305 21 c-3 -9 -8 -14 -10 -11 -3 3 -2 9 2 15 9 16 15 13
8 -4z m157 -1 c0 -14 -3 -14 -15 -4 -8 7 -15 14 -15 16 0 2 7 4 15 4 8 0 15
-7 15 -16z m-540 -9 c0 -8 -4 -15 -10 -15 -5 0 -10 7 -10 15 0 8 5 15 10 15 6
0 10 -7 10 -15z m29 -17 c-1 -31 -1 -31 -8 -8 -5 14 -6 28 -4 33 9 15 13 6 12
-25z m161 24 c0 -13 -12 -22 -22 -16 -10 6 -1 24 13 24 5 0 9 -4 9 -8z m150 1
c-1 -14 -27 -43 -33 -37 -8 9 11 44 23 44 6 0 10 -3 10 -7z m75 -50 c-18 -43
-31 -58 -20 -24 4 13 9 31 10 40 2 9 4 17 4 19 1 1 6 2 11 2 6 0 4 -16 -5 -37z
m-211 12 c-4 -8 -8 -15 -10 -15 -2 0 -4 7 -4 15 0 8 4 15 10 15 5 0 7 -7 4
-15z m-226 -7 c-6 -18 -28 -21 -28 -4 0 9 7 16 16 16 9 0 14 -5 12 -12z m167
3 c3 -5 1 -12 -5 -16 -5 -3 -10 1 -10 9 0 18 6 21 15 7z m-46 -71 c0 -9 -4 -8
-9 5 -5 11 -9 27 -9 35 0 9 4 8 9 -5 5 -11 9 -27 9 -35z m-174 21 c-3 -6 -11
-11 -17 -11 -6 0 -6 6 2 15 14 17 26 13 15 -4z m129 4 c4 -10 -1 -15 -14 -15
-11 0 -19 -3 -19 -7 4 -23 -3 -33 -21 -33 -28 0 -25 20 3 21 12 0 16 3 10 6
-9 3 -10 10 -3 24 13 23 36 25 44 4z m102 -12 c-10 -10 -19 5 -10 18 6 11 8
11 12 0 2 -7 1 -15 -2 -18z m174 13 c0 -3 -4 -8 -10 -11 -5 -3 -10 -1 -10 4 0
6 5 11 10 11 6 0 10 -2 10 -4z m-456 -78 c-1 -18 -3 -36 -3 -40 -1 -5 -6 -8
-11 -8 -20 0 -4 78 16 80 1 0 0 -15 -2 -32z m-3137 -20 c-3 -7 -5 -2 -5 12 0
14 2 19 5 13 2 -7 2 -19 0 -25z m2881 0 c-1 -18 4 -34 9 -35 16 -6 -9 -53 -27
-53 -12 0 -16 10 -15 40 0 22 3 40 6 40 4 0 9 9 12 20 8 30 16 24 15 -12z
m399 10 c-3 -8 -6 -5 -6 6 -1 11 2 17 5 13 3 -3 4 -12 1 -19z m-313 -39 c-3
-5 -10 -7 -15 -3 -5 3 -7 10 -3 15 3 5 10 7 15 3 5 -3 7 -10 3 -15z m-140 -53
c-6 -25 -7 -26 -25 -10 -17 16 -19 15 -30 -10 -7 -14 -16 -26 -21 -26 -13 0
-9 38 5 47 6 4 18 21 26 36 14 27 15 27 33 9 14 -14 17 -26 12 -46z m144 9
c-8 -19 -14 -22 -20 -13 -12 19 -10 26 10 31 9 3 18 5 19 6 2 0 -3 -10 -9 -24z
m-2817 -98 c-16 -16 -19 -7 -13 33 l5 35 10 -28 c6 -20 6 -32 -2 -40z m2909
59 c0 -2 -7 -9 -15 -16 -13 -11 -14 -10 -9 4 5 14 24 23 24 12z m-2985 -16 c3
-5 1 -10 -4 -10 -6 0 -11 5 -11 10 0 6 2 10 4 10 3 0 8 -4 11 -10z m2815 4 c0
-3 -7 -12 -15 -20 -12 -13 -15 -13 -15 -1 0 7 3 17 7 20 8 8 23 9 23 1z m-266
-55 c-10 -11 -19 -27 -20 -35 -4 -25 -24 -42 -44 -37 -10 3 -16 11 -13 18 2 8
10 12 17 9 7 -3 16 9 21 28 6 18 16 32 23 30 7 -1 16 6 19 15 5 11 8 13 11 4
2 -6 -4 -21 -14 -32z m107 26 c-1 -15 -24 -12 -29 3 -3 9 2 13 12 10 10 -1 17
-7 17 -13z m40 -24 c-8 -5 -15 -19 -16 -32 -2 -24 -25 -40 -25 -17 0 19 29 58
43 58 8 0 7 -3 -2 -9z m-237 -45 c-16 -14 -35 -26 -41 -26 -7 0 -13 -11 -13
-24 0 -26 -15 -43 -24 -28 -9 15 45 89 73 99 37 13 38 8 5 -21z m-2404 15 c0
-12 -29 -23 -41 -15 -18 10 -9 24 16 24 14 0 25 -4 25 -9z m2300 -5 c0 -3 -4
-8 -10 -11 -5 -3 -10 -1 -10 4 0 6 5 11 10 11 6 0 10 -2 10 -4z m250 0 c0 -2
-8 -10 -17 -17 -16 -13 -17 -12 -4 4 13 16 21 21 21 13z m-2670 -16 c0 -5 -4
-10 -9 -10 -6 0 -13 5 -16 10 -3 6 1 10 9 10 9 0 16 -4 16 -10z m2424 -44 c-3
-9 -10 -16 -15 -16 -6 0 -5 9 1 21 13 24 24 20 14 -5z m-179 -43 c-8 -35 -13
-39 -26 -26 -8 8 -8 17 0 32 17 31 35 27 26 -6z m91 16 c3 -6 -1 -18 -10 -27
-15 -15 -16 -14 -14 11 2 28 12 35 24 16z m260 -26 c-10 -10 -19 5 -10 18 6
11 8 11 12 0 2 -7 1 -15 -2 -18z m-186 -2 c0 -6 -4 -13 -10 -16 -5 -3 -10 1
-10 9 0 9 5 16 10 16 6 0 10 -4 10 -9z m-225 -11 c-3 -5 -11 -10 -16 -10 -6 0
-7 5 -4 10 3 6 11 10 16 10 6 0 7 -4 4 -10z m-82 -42 c-2 -5 -13 -8 -24 -8
-10 0 -19 -4 -19 -10 0 -5 -7 -10 -16 -10 -11 0 -5 10 18 33 26 25 34 29 39
17 4 -8 5 -18 2 -22z m74 -28 c-11 -18 -27 -27 -27 -15 0 13 25 43 32 39 4 -3
2 -14 -5 -24z m63 11 c0 -5 -7 -12 -16 -15 -22 -9 -24 -8 -24 9 0 8 9 15 20
15 11 0 20 -4 20 -9z m-294 -47 c-6 -16 -8 -16 -23 -2 -9 10 -13 23 -9 34 6
16 8 16 23 2 9 -10 13 -23 9 -34z m-68 -28 c-10 -30 -13 -34 -19 -20 -8 23 10
79 22 67 5 -5 3 -26 -3 -47z m214 2 c-9 -9 -12 -7 -12 12 0 19 3 21 12 12 9
-9 9 -15 0 -24z m-147 -18 c3 -5 1 -10 -4 -10 -6 0 -11 5 -11 10 0 6 2 10 4
10 3 0 8 -4 11 -10z m-19 -108 c-11 -10 -14 3 -7 38 l6 35 3 -33 c2 -19 1 -36
-2 -40z m-1111 -65 c4 -15 23 -30 56 -44 59 -27 70 -47 40 -76 -21 -21 -21
-21 -21 -1 0 12 -19 34 -50 58 -35 27 -50 45 -50 62 0 30 18 31 25 1z m985 19
c0 -2 -7 -7 -16 -10 -8 -3 -12 -2 -9 4 6 10 25 14 25 6z m-312 -28 c-5 -15
-23 -11 -26 6 -2 11 2 14 13 10 9 -4 14 -11 13 -16z m-1099 -23 c11 3 26 -4
40 -21 18 -21 21 -33 16 -60 -5 -29 -10 -34 -34 -34 -29 0 -57 21 -44 33 3 4
11 -1 18 -10 7 -9 17 -13 23 -9 19 12 14 54 -8 66 -15 8 -20 8 -20 -1 0 -9 -3
-9 -14 0 -7 6 -13 23 -13 38 0 22 1 23 9 9 6 -10 16 -15 27 -11z m234 20 c10
-4 12 -16 7 -43 -3 -20 -1 -45 4 -54 8 -13 6 -21 -8 -31 -18 -13 -18 -14 3
-20 11 -3 21 -12 21 -21 0 -21 -26 -21 -34 1 -6 15 -8 15 -23 1 -16 -17 -11
-54 7 -43 5 3 20 -4 32 -16 16 -15 19 -23 11 -26 -20 -7 -15 -40 7 -46 11 -3
20 -12 20 -20 0 -23 -19 -31 -26 -12 -6 14 -9 14 -31 0 -23 -16 -24 -15 -17
12 4 15 11 32 15 38 15 16 11 45 -6 39 -8 -4 -15 -1 -15 5 0 6 -6 11 -14 11
-25 0 -46 30 -46 66 0 19 -4 34 -10 34 -13 0 -13 27 0 35 5 3 21 3 35 -1 19
-5 23 -10 16 -17 -13 -13 -15 -67 -3 -67 10 0 28 35 35 68 4 15 0 25 -9 29 -9
3 -14 20 -14 44 0 39 9 46 43 34z m417 -5 c0 -5 -5 -10 -11 -10 -5 0 -7 5 -4
10 3 6 8 10 11 10 2 0 4 -4 4 -10z m397 -12 c-1 -20 -23 -32 -32 -18 -3 5 -12
7 -20 3 -17 -6 -20 8 -4 24 17 17 58 11 56 -9z m-105 -10 c-6 -6 -15 -8 -19
-4 -4 4 -1 11 7 16 19 12 27 3 12 -12z m-332 -13 c0 -10 -6 -11 -29 -2 -17 6
-28 14 -26 18 8 11 55 -3 55 -16z m360 2 c0 -10 -33 -68 -36 -64 -6 6 20 67
28 67 4 0 8 -2 8 -3z m-160 -31 c0 -8 -4 -18 -10 -21 -5 -3 -10 3 -10 14 0 12
5 21 10 21 6 0 10 -6 10 -14z m-534 -10 c3 -8 0 -23 -6 -33 -10 -16 -11 -16
-6 -1 3 10 1 20 -4 23 -6 4 -10 10 -10 16 0 14 20 11 26 -5z m74 -76 c11 0 21
-28 26 -79 2 -24 9 -50 15 -58 14 -17 5 -28 -16 -20 -9 4 -15 19 -15 39 0 18
-6 50 -14 72 l-13 38 -22 -23 c-13 -14 -19 -30 -15 -41 4 -12 0 -18 -11 -18
-13 0 -15 5 -10 18 4 9 10 29 13 45 2 15 13 32 23 37 10 6 16 17 13 25 -4 8
-2 23 2 33 6 12 9 6 12 -25 2 -24 7 -43 12 -43z m390 33 c0 -12 -4 -25 -10
-28 -5 -3 -10 -1 -10 6 0 7 -7 20 -16 30 -9 10 -13 22 -10 28 11 17 46 -11 46
-36z m-160 27 c0 -5 -4 -10 -10 -10 -5 0 -10 5 -10 10 0 6 5 10 10 10 6 0 10
-4 10 -10z m297 -12 c-3 -8 -6 -5 -6 6 -1 11 2 17 5 13 3 -3 4 -12 1 -19z
m-488 -14 c3 -16 1 -17 -13 -5 -19 16 -21 34 -3 29 6 -3 14 -13 16 -24z m397
-21 c-11 -11 -19 6 -11 24 8 17 8 17 12 0 3 -10 2 -21 -1 -24z m-696 17 c0 -5
-5 -10 -11 -10 -5 0 -7 5 -4 10 3 6 8 10 11 10 2 0 4 -4 4 -10z m197 -12 c-3
-8 -6 -5 -6 6 -1 11 2 17 5 13 3 -3 4 -12 1 -19z m119 -35 c-11 -11 -19 6 -11
24 8 17 8 17 12 0 3 -10 2 -21 -1 -24z m264 28 c0 -5 2 -24 5 -42 l5 -34 -14
35 c-18 43 -19 50 -6 50 6 0 10 -4 10 -9z m-153 -13 c4 -7 6 -21 5 -30 -2 -10
1 -18 6 -18 5 0 7 -11 4 -25 -7 -39 -33 -32 -30 8 2 34 -7 57 -23 57 -5 0 -9
-9 -9 -20 0 -11 -4 -20 -10 -20 -5 0 -10 11 -10 24 0 18 7 26 23 29 12 2 25 5
29 6 4 0 10 -5 15 -11z m57 -19 c-10 -16 -24 -9 -24 12 0 18 2 19 15 9 8 -7
12 -16 9 -21z m246 11 c0 -5 -5 -10 -11 -10 -5 0 -7 5 -4 10 3 6 8 10 11 10 2
0 4 -4 4 -10z m-915 -20 c-3 -5 -10 -10 -16 -10 -5 0 -9 5 -9 10 0 6 7 10 16
10 8 0 12 -4 9 -10z m104 -31 c10 0 6 -4 -9 -11 -21 -9 -22 -11 -8 -17 13 -4
15 -10 8 -21 -5 -8 -10 -33 -10 -55 0 -33 -2 -37 -13 -25 -9 11 -11 39 -9 95
4 65 6 76 15 58 5 -13 17 -23 26 -24z m81 16 c0 -15 -43 -12 -48 3 -3 10 4 13
22 10 15 -2 26 -7 26 -13z m627 -7 c-3 -8 -6 -5 -6 6 -1 11 2 17 5 13 3 -3 4
-12 1 -19z m-67 -12 c0 -8 -4 -18 -10 -21 -5 -3 -10 3 -10 14 0 12 5 21 10 21
6 0 10 -6 10 -14z m-230 -28 c0 -5 -4 -8 -10 -8 -5 0 -10 10 -10 23 0 18 2 19
10 7 5 -8 10 -18 10 -22z m-100 -4 c0 -14 -4 -23 -9 -20 -5 3 -7 15 -4 26 7
28 13 25 13 -6z m-410 -5 c0 -5 -4 -9 -10 -9 -5 0 -10 7 -10 16 0 8 5 12 10 9
6 -3 10 -10 10 -16z m148 -16 c0 -34 -1 -35 -10 -16 -6 12 -8 29 -5 37 10 25
14 19 15 -21z m42 -35 c0 -26 -2 -29 -15 -18 -8 7 -15 26 -15 42 0 26 2 29 15
18 8 -7 15 -26 15 -42z m454 33 c3 -5 -1 -14 -9 -21 -13 -10 -15 -9 -15 9 0
21 14 28 24 12z m367 -14 c-10 -9 -11 -8 -5 6 3 10 9 15 12 12 3 -3 0 -11 -7
-18z m-488 7 c9 -9 -4 -35 -14 -28 -5 3 -9 12 -9 20 0 14 12 19 23 8z m397
-24 c0 -5 -4 -10 -10 -10 -5 0 -10 5 -10 10 0 6 5 10 10 10 6 0 10 -4 10 -10z
m-674 -57 c-10 -10 -19 5 -10 18 6 11 8 11 12 0 2 -7 1 -15 -2 -18z m284 18
c0 -6 -4 -13 -10 -16 -5 -3 -10 1 -10 9 0 9 5 16 10 16 6 0 10 -4 10 -9z m150
-31 c0 -5 -5 -10 -11 -10 -5 0 -7 5 -4 10 3 6 8 10 11 10 2 0 4 -4 4 -10z
m-270 -10 c0 -5 -7 -10 -16 -10 -8 0 -12 5 -9 10 3 6 10 10 16 10 5 0 9 -4 9
-10z m-95 -20 c3 -5 1 -10 -4 -10 -6 0 -11 5 -11 10 0 6 2 10 4 10 3 0 8 -4
11 -10z"/>
<path d="M3270 3506 c0 -3 14 -12 30 -21 17 -9 30 -13 30 -11 0 3 -13 12 -30
21 -16 9 -30 13 -30 11z"/>
<path d="M3380 3446 c0 -3 9 -10 20 -16 11 -6 20 -8 20 -6 0 3 -9 10 -20 16
-11 6 -20 8 -20 6z"/>
<path d="M3450 3406 c0 -3 9 -10 20 -16 11 -6 20 -8 20 -6 0 3 -9 10 -20 16
-11 6 -20 8 -20 6z"/>
<path d="M3520 3366 c0 -3 14 -12 30 -21 17 -9 30 -13 30 -11 0 3 -13 12 -30
21 -16 9 -30 13 -30 11z"/>
<path d="M3595 3323 c6 -6 107 -64 225 -130 294 -164 357 -198 345 -186 -5 6
-127 75 -270 155 -284 159 -315 175 -300 161z"/>
<path d="M3439 2986 c9 -10 8 -15 -3 -19 -18 -7 -10 -46 11 -54 22 -9 44 -58
31 -71 -5 -5 -8 -16 -6 -22 3 -9 9 -8 21 4 9 10 17 13 17 7 0 -6 5 -11 10 -11
6 0 -1 20 -14 45 -14 25 -21 45 -15 45 8 0 8 4 1 13 -6 6 -11 17 -13 22 -6 28
-24 55 -37 55 -11 0 -12 -3 -3 -14z m36 -57 c11 -17 -1 -21 -15 -4 -8 9 -8 15
-2 15 6 0 14 -5 17 -11z"/>
<path d="M3475 2990 c-3 -5 -1 -10 4 -10 6 0 11 5 11 10 0 6 -2 10 -4 10 -3 0
-8 -4 -11 -10z"/>
<path d="M4200 2986 c0 -3 14 -12 30 -21 17 -9 30 -13 30 -11 0 3 -13 12 -30
21 -16 9 -30 13 -30 11z"/>
<path d="M3510 2970 c0 -5 5 -10 10 -10 6 0 10 5 10 10 0 6 -4 10 -10 10 -5 0
-10 -4 -10 -10z"/>
<path d="M4275 2943 c6 -6 51 -32 100 -59 50 -26 86 -43 80 -37 -5 6 -50 32
-100 58 -49 26 -85 43 -80 38z"/>
<path d="M3530 2924 c0 -8 5 -12 10 -9 6 3 10 10 10 16 0 5 -4 9 -10 9 -5 0
-10 -7 -10 -16z"/>
<path d="M3525 2879 c-10 -15 3 -25 16 -12 7 7 7 13 1 17 -6 3 -14 1 -17 -5z"/>
<path d="M3570 2880 c0 -5 0 -13 1 -16 0 -4 -3 -10 -9 -13 -14 -9 -24 -61 -12
-61 6 0 9 4 6 9 -3 4 3 16 14 26 21 19 28 65 10 65 -5 0 -10 -4 -10 -10z"/>
<path d="M4475 2832 c12 -13 661 -374 1025 -570 36 -19 137 -74 225 -122 88
-48 201 -109 250 -135 50 -27 164 -89 255 -138 91 -49 262 -141 380 -204 118
-64 264 -142 323 -175 60 -33 111 -57 114 -55 3 3 -10 13 -28 23 -18 9 -49 26
-68 37 -20 11 -92 50 -161 87 -69 37 -291 158 -495 267 -587 317 -1368 743
-1630 888 -127 70 -199 107 -190 97z"/>
<path d="M3612 2819 c2 -7 10 -15 17 -17 8 -3 12 1 9 9 -2 7 -10 15 -17 17 -8
3 -12 -1 -9 -9z"/>
<path d="M3665 2820 c-3 -5 1 -10 10 -10 9 0 13 5 10 10 -3 6 -8 10 -10 10 -2
0 -7 -4 -10 -10z"/>
<path d="M3490 2800 c0 -5 5 -10 11 -10 5 0 7 5 4 10 -3 6 -8 10 -11 10 -2 0
-4 -4 -4 -10z"/>
<path d="M3380 2795 c0 -5 5 -17 10 -25 5 -8 10 -10 10 -5 0 6 -5 17 -10 25
-5 8 -10 11 -10 5z"/>
<path d="M3620 2780 c0 -5 5 -10 11 -10 5 0 7 5 4 10 -3 6 -8 10 -11 10 -2 0
-4 -4 -4 -10z"/>
<path d="M2400 2754 c0 -14 3 -14 15 -4 8 7 15 14 15 16 0 2 -7 4 -15 4 -8 0
-15 -7 -15 -16z"/>
<path d="M3330 2756 c0 -9 7 -12 21 -9 16 4 17 8 7 14 -19 13 -28 11 -28 -5z"/>
<path d="M3500 2762 c0 -5 7 -13 16 -16 10 -4 14 -1 12 6 -5 15 -28 23 -28 10z"/>
<path d="M3855 2750 c3 -5 11 -10 16 -10 6 0 7 5 4 10 -3 6 -11 10 -16 10 -6
0 -7 -4 -4 -10z"/>
<path d="M3382 2720 c0 -17 4 -30 9 -30 11 0 12 47 1 54 -5 3 -9 -8 -10 -24z"/>
<path d="M3450 2741 c0 -7 -4 -9 -10 -6 -6 3 -10 -4 -10 -17 l0 -22 16 22 c9
13 13 26 10 29 -3 4 -6 1 -6 -6z"/>
<path d="M3540 2737 c0 -9 -9 -26 -21 -38 -22 -22 -21 -40 2 -47 11 -3 11 -1
1 6 -15 10 -5 42 13 42 17 0 28 31 15 44 -7 7 -10 5 -10 -7z"/>
<path d="M3710 2739 c0 -5 5 -7 10 -4 6 3 10 8 10 11 0 2 -4 4 -10 4 -5 0 -10
-5 -10 -11z"/>
<path d="M3500 2730 c0 -5 5 -10 11 -10 5 0 7 5 4 10 -3 6 -8 10 -11 10 -2 0
-4 -4 -4 -10z"/>
<path d="M3830 2726 c0 -8 4 -17 9 -20 5 -4 7 3 4 14 -6 23 -13 26 -13 6z"/>
<path d="M3898 2733 c7 -3 16 -2 19 1 4 3 -2 6 -13 5 -11 0 -14 -3 -6 -6z"/>
<path d="M3314 2709 c0 -10 4 -19 8 -19 4 0 8 6 8 14 0 8 -4 17 -8 20 -4 2 -8
-4 -8 -15z"/>
<path d="M3360 2719 c0 -5 5 -7 10 -4 6 3 10 8 10 11 0 2 -4 4 -10 4 -5 0 -10
-5 -10 -11z"/>
<path d="M3577 2710 c3 -11 12 -20 19 -20 19 0 18 26 -2 34 -22 9 -23 8 -17
-14z"/>
<path d="M2743 2713 c-7 -2 -9 -11 -6 -19 4 -10 0 -12 -11 -8 -12 5 -16 0 -16
-17 0 -18 2 -21 9 -10 8 13 12 13 27 0 9 -8 19 -13 21 -11 1 1 6 2 11 1 4 0
-2 -4 -12 -8 -13 -5 -16 -10 -9 -14 7 -4 21 7 34 25 12 18 17 28 10 22 -7 -7
-21 -9 -32 -7 -14 4 -16 9 -9 23 11 20 3 30 -17 23z"/>
<path d="M3268 2680 c-2 -21 0 -36 4 -34 5 3 8 12 8 20 0 8 5 12 10 9 6 -3 10
3 10 13 0 11 -6 22 -14 25 -10 4 -15 -5 -18 -33z"/>
<path d="M2896 2695 c4 -8 8 -15 10 -15 2 0 4 7 4 15 0 8 -4 15 -10 15 -5 0
-7 -7 -4 -15z"/>
<path d="M2043 2682 c-13 -21 -1 -48 16 -38 6 4 11 14 11 22 0 8 6 14 13 14 8
0 7 4 -3 10 -21 13 -24 13 -37 -8z"/>
<path d="M2930 2690 c0 -5 4 -10 9 -10 6 0 13 5 16 10 3 6 -1 10 -9 10 -9 0
-16 -4 -16 -10z"/>
<path d="M3760 2689 c0 -5 5 -7 10 -4 6 3 10 8 10 11 0 2 -4 4 -10 4 -5 0 -10
-5 -10 -11z"/>
<path d="M2210 2677 c0 -7 9 -13 20 -14 18 -2 18 0 6 13 -18 17 -26 18 -26 1z"/>
<path d="M3350 2683 c0 -5 4 -15 10 -23 11 -18 25 -7 17 15 -6 15 -27 21 -27
8z"/>
<path d="M3680 2675 c-10 -12 -9 -16 4 -21 9 -4 20 -4 23 0 4 3 1 6 -5 6 -7 0
-12 5 -12 11 0 5 5 7 12 3 7 -4 8 -3 4 4 -9 15 -11 15 -26 -3z"/>
<path d="M3730 2684 c0 -13 18 -39 24 -34 2 3 -2 14 -10 24 -8 11 -14 16 -14
10z"/>
<path d="M2092 2660 c-18 -30 -14 -36 8 -12 21 22 25 32 12 32 -4 0 -13 -9
-20 -20z"/>
<path d="M3407 2673 c-4 -3 -7 -13 -7 -22 1 -13 3 -13 11 2 11 19 8 33 -4 20z"/>
<path d="M3540 2670 c0 -5 5 -10 10 -10 6 0 10 -9 10 -20 0 -11 -4 -20 -10
-20 -5 0 -10 -4 -10 -10 0 -18 19 -10 25 11 5 14 12 18 23 14 41 -17 54 -15
22 3 -19 11 -34 25 -32 31 1 6 -7 11 -18 11 -11 0 -20 -4 -20 -10z"/>
<path d="M3598 2668 c13 -13 62 -20 62 -9 0 5 -16 11 -35 13 -19 2 -31 0 -27
-4z"/>
<path d="M2120 2641 c-13 -25 -13 -34 2 -29 6 2 13 14 15 26 4 27 -3 28 -17 3z"/>
<path d="M2477 2629 c12 -12 25 -20 28 -17 3 3 -7 13 -22 23 l-28 17 22 -23z"/>
<path d="M3829 2629 c6 -17 6 -30 -1 -37 -6 -6 -6 -12 1 -16 5 -4 8 -14 5 -24
-5 -14 -3 -14 10 2 10 13 12 22 6 26 -6 4 -8 13 -5 21 3 8 -1 23 -10 34 -14
19 -15 19 -6 -6z"/>
<path d="M3296 2632 c-3 -6 -1 -14 5 -17 14 -9 20 -2 10 14 -6 8 -11 9 -15 3z"/>
<path d="M2815 2620 c3 -5 11 -10 16 -10 6 0 7 5 4 10 -3 6 -11 10 -16 10 -6
0 -7 -4 -4 -10z"/>
<path d="M3100 2619 c0 -5 5 -7 10 -4 6 3 10 8 10 11 0 2 -4 4 -10 4 -5 0 -10
-5 -10 -11z"/>
<path d="M3211 2609 c17 -13 26 -14 31 -6 13 20 9 24 -23 24 l-31 0 23 -18z"/>
<path d="M3386 2615 c4 -8 10 -12 15 -9 14 8 10 24 -6 24 -9 0 -12 -6 -9 -15z"/>
<path d="M2350 2609 c0 -5 5 -7 10 -4 6 3 10 8 10 11 0 2 -4 4 -10 4 -5 0 -10
-5 -10 -11z"/>
<path d="M3580 2595 c0 -14 -5 -25 -12 -25 -6 0 -9 -2 -6 -5 12 -13 36 8 34
31 -1 32 -16 31 -16 -1z"/>
<path d="M3756 2611 c-4 -5 -2 -20 3 -33 9 -21 9 -20 8 9 -2 36 -3 38 -11 24z"/>
<path d="M3323 2595 c-3 -9 -3 -19 1 -22 3 -4 6 1 6 10 0 8 6 18 13 20 9 4 9
6 -1 6 -7 1 -15 -6 -19 -14z"/>
<path d="M3884 2596 c-3 -8 -1 -23 5 -33 9 -15 10 -13 11 15 0 34 -7 42 -16
18z"/>
<path d="M3712 2570 c7 -11 16 -20 21 -20 4 0 3 9 -3 20 -6 11 -15 20 -20 20
-6 0 -5 -9 2 -20z"/>
<path d="M4010 2574 c0 -10 5 -26 10 -34 8 -11 9 -7 4 15 -8 37 -14 45 -14 19z"/>
<path d="M1830 2570 c-8 -5 -11 -12 -7 -16 4 -4 15 0 24 9 18 18 8 23 -17 7z"/>
<path d="M3506 2555 c4 -8 10 -15 15 -15 4 0 6 7 3 15 -4 8 -10 15 -15 15 -4
0 -6 -7 -3 -15z"/>
<path d="M3310 2550 c0 -5 5 -10 10 -10 6 0 10 5 10 10 0 6 -4 10 -10 10 -5 0
-10 -4 -10 -10z"/>
<path d="M3360 2550 c0 -5 5 -10 11 -10 5 0 7 5 4 10 -3 6 -8 10 -11 10 -2 0
-4 -4 -4 -10z"/>
<path d="M3421 2521 c17 -14 26 -16 31 -8 13 20 9 30 -6 18 -10 -8 -16 -9 -21
-1 -3 5 -11 10 -17 10 -5 0 0 -9 13 -19z"/>
<path d="M3797 2533 c-4 -3 -7 -11 -7 -17 0 -6 5 -5 12 2 6 6 9 14 7 17 -3 3
-9 2 -12 -2z"/>
<path d="M3746 2513 c-6 -14 -5 -15 5 -6 7 7 10 15 7 18 -3 3 -9 -2 -12 -12z"/>
<path d="M4050 2500 c0 -5 5 -10 10 -10 6 0 10 5 10 10 0 6 -4 10 -10 10 -5 0
-10 -4 -10 -10z"/>
<path d="M3504 2488 c-4 -7 -3 -8 4 -4 19 12 35 -3 21 -20 -7 -8 -7 -14 -1
-14 12 0 24 29 16 41 -7 13 -31 11 -40 -3z"/>
<path d="M3604 2483 c3 -6 2 -14 -4 -18 -5 -3 -10 -11 -10 -18 0 -6 7 -4 17 6
14 14 15 19 4 29 -9 9 -12 9 -7 1z"/>
<path d="M4235 2480 c-3 -5 -1 -10 4 -10 6 0 11 5 11 10 0 6 -2 10 -4 10 -3 0
-8 -4 -11 -10z"/>
<path d="M3836 2454 c-5 -14 -4 -15 9 -4 17 14 19 20 6 20 -5 0 -12 -7 -15
-16z"/>
<path d="M3230 2420 c0 -5 5 -10 11 -10 5 0 7 5 4 10 -3 6 -8 10 -11 10 -2 0
-4 -4 -4 -10z"/>
<path d="M3680 2418 c0 -9 5 -20 10 -23 13 -8 13 5 0 25 -8 13 -10 13 -10 -2z"/>
<path d="M3870 2420 c0 -5 5 -10 11 -10 5 0 7 5 4 10 -3 6 -8 10 -11 10 -2 0
-4 -4 -4 -10z"/>
<path d="M4305 2420 c-3 -5 -1 -10 4 -10 6 0 11 5 11 10 0 6 -2 10 -4 10 -3 0
-8 -4 -11 -10z"/>
<path d="M3720 2410 c0 -5 5 -10 10 -10 6 0 10 5 10 10 0 6 -4 10 -10 10 -5 0
-10 -4 -10 -10z"/>
<path d="M4010 2410 c0 -5 5 -10 11 -10 5 0 7 5 4 10 -3 6 -8 10 -11 10 -2 0
-4 -4 -4 -10z"/>
<path d="M3795 2400 c3 -5 8 -10 11 -10 2 0 4 5 4 10 0 6 -5 10 -11 10 -5 0
-7 -4 -4 -10z"/>
<path d="M3900 2397 c0 -8 7 -20 15 -27 11 -9 15 -10 15 -1 0 7 -7 19 -15 27
-13 13 -15 13 -15 1z"/>
<path d="M3945 2380 c3 -5 8 -10 11 -10 2 0 4 5 4 10 0 6 -5 10 -11 10 -5 0
-7 -4 -4 -10z"/>
<path d="M4125 2380 c-3 -5 -1 -10 4 -10 6 0 11 5 11 10 0 6 -2 10 -4 10 -3 0
-8 -4 -11 -10z"/>
<path d="M4010 2360 c0 -11 5 -20 10 -20 6 0 10 9 10 20 0 11 -4 20 -10 20 -5
0 -10 -9 -10 -20z"/>
<path d="M1406 2345 c4 -8 10 -12 15 -9 11 6 2 24 -11 24 -5 0 -7 -7 -4 -15z"/>
<path d="M3835 2340 c-3 -5 -1 -10 4 -10 6 0 11 5 11 10 0 6 -2 10 -4 10 -3 0
-8 -4 -11 -10z"/>
<path d="M3925 2340 c-7 -12 2 -30 16 -30 5 0 9 9 9 20 0 21 -15 27 -25 10z"/>
<path d="M3962 2328 c6 -18 28 -21 28 -4 0 9 -7 16 -16 16 -9 0 -14 -5 -12
-12z"/>
<path d="M4120 2298 c0 -31 11 -68 19 -68 4 0 8 7 8 15 0 8 -5 15 -10 15 -5 0
-7 11 -5 25 3 14 1 28 -3 31 -5 3 -9 -5 -9 -18z"/>
<path d="M4211 2303 c-1 -12 4 -25 9 -28 12 -7 12 2 0 30 -8 19 -9 19 -9 -2z"/>
<path d="M3866 2288 c-24 -33 -19 -45 5 -14 12 15 19 29 16 32 -3 3 -12 -5
-21 -18z"/>
<path d="M4260 2295 c0 -8 2 -15 4 -15 2 0 6 7 10 15 3 8 1 15 -4 15 -6 0 -10
-7 -10 -15z"/>
<path d="M4006 2271 c-4 -7 -5 -15 -2 -18 9 -9 19 4 14 18 -4 11 -6 11 -12 0z"/>
<path d="M1282 2259 c2 -7 10 -15 17 -17 8 -3 12 1 9 9 -2 7 -10 15 -17 17 -8
3 -12 -1 -9 -9z"/>
<path d="M3965 2260 c-3 -5 -1 -10 4 -10 6 0 11 5 11 10 0 6 -2 10 -4 10 -3 0
-8 -4 -11 -10z"/>
<path d="M3897 2246 c-4 -10 -5 -21 -2 -24 9 -9 17 6 13 25 -3 17 -4 17 -11
-1z"/>
<path d="M4046 2251 c-4 -7 -5 -15 -2 -18 9 -9 19 4 14 18 -4 11 -6 11 -12 0z"/>
<path d="M4235 2250 c3 -5 10 -10 16 -10 5 0 9 5 9 10 0 6 -7 10 -16 10 -8 0
-12 -4 -9 -10z"/>
<path d="M4587 2240 c3 -11 9 -17 15 -14 5 3 4 12 -3 20 -16 19 -18 18 -12 -6z"/>
<path d="M3610 2239 c0 -5 5 -7 10 -4 6 3 10 8 10 11 0 2 -4 4 -10 4 -5 0 -10
-5 -10 -11z"/>
<path d="M4507 2244 c-4 -4 -7 -14 -7 -23 0 -11 3 -12 11 -4 6 6 10 16 7 23
-2 6 -7 8 -11 4z"/>
<path d="M4640 2230 c-6 -11 -9 -20 -8 -20 2 0 11 9 21 20 9 11 13 20 7 20 -5
0 -14 -9 -20 -20z"/>
<path d="M4718 2235 c-3 -6 0 -15 7 -22 10 -10 16 -9 27 4 11 14 11 16 -4 10
-9 -3 -18 -1 -21 6 -2 6 -6 7 -9 2z"/>
<path d="M4680 2221 c0 -6 4 -13 10 -16 6 -3 7 1 4 9 -7 18 -14 21 -14 7z"/>
<path d="M4078 2215 c-8 -8 3 -55 13 -55 5 0 6 12 3 28 -8 32 -9 34 -16 27z"/>
<path d="M4380 2203 c-13 -15 -12 -16 4 -10 10 4 20 7 22 7 2 0 4 5 4 10 0 15
-13 12 -30 -7z"/>
<path d="M4557 2213 c-4 -3 -7 -11 -7 -17 0 -6 5 -5 12 2 6 6 9 14 7 17 -3 3
-9 2 -12 -2z"/>
<path d="M4300 2200 c-8 -5 -11 -12 -7 -16 4 -4 13 -2 19 4 15 15 7 24 -12 12z"/>
<path d="M4167 2179 c-4 -16 -3 -18 9 -8 16 13 19 29 5 29 -5 0 -11 -9 -14
-21z"/>
<path d="M4451 2184 c0 -11 3 -14 6 -6 3 7 2 16 -1 19 -3 4 -6 -2 -5 -13z"/>
<path d="M4638 2195 c-3 -6 -8 -23 -12 -40 l-6 -30 16 28 c8 16 14 33 11 40
-2 6 -6 7 -9 2z"/>
<path d="M3992 2169 c-7 -12 -11 -23 -9 -25 6 -6 37 25 37 37 0 16 -15 10 -28
-12z"/>
<path d="M4663 2173 c-7 -2 -13 -12 -13 -20 0 -14 2 -14 18 0 21 19 42 23 24
5 -7 -7 -12 -19 -12 -27 1 -13 4 -12 15 3 28 37 11 57 -32 39z"/>
<path d="M3440 2161 c0 -6 4 -13 10 -16 6 -3 7 1 4 9 -7 18 -14 21 -14 7z"/>
<path d="M4555 2159 c-4 -6 -5 -12 -2 -15 2 -3 7 2 10 11 7 17 1 20 -8 4z"/>
<path d="M1091 2126 c-14 -14 -21 -29 -17 -33 9 -9 49 32 44 47 -2 6 -13 1
-27 -14z"/>
<path d="M4305 2141 c-3 -5 -1 -12 4 -15 5 -3 11 1 15 9 6 16 -9 21 -19 6z"/>
<path d="M4410 2135 c0 -8 2 -15 4 -15 2 0 6 7 10 15 3 8 1 15 -4 15 -6 0 -10
-7 -10 -15z"/>
<path d="M4460 2135 c0 -8 5 -15 10 -15 6 0 10 7 10 15 0 8 -4 15 -10 15 -5 0
-10 -7 -10 -15z"/>
<path d="M3785 2120 c3 -5 8 -10 11 -10 2 0 4 5 4 10 0 6 -5 10 -11 10 -5 0
-7 -4 -4 -10z"/>
<path d="M4210 2109 c0 -6 6 -9 14 -6 7 3 19 0 25 -6 8 -8 11 -8 11 0 0 11
-22 23 -41 23 -5 0 -9 -5 -9 -11z"/>
<path d="M4282 2109 c2 -7 10 -15 17 -17 8 -3 12 1 9 9 -2 7 -10 15 -17 17 -8
3 -12 -1 -9 -9z"/>
<path d="M4385 2110 c3 -5 8 -10 11 -10 2 0 4 5 4 10 0 6 -5 10 -11 10 -5 0
-7 -4 -4 -10z"/>
<path d="M4675 2080 c-3 -5 -1 -10 4 -10 6 0 11 5 11 10 0 6 -2 10 -4 10 -3 0
-8 -4 -11 -10z"/>
<path d="M4930 2080 c0 -5 5 -10 10 -10 6 0 10 -7 10 -17 0 -9 3 -14 6 -10 8
8 -5 47 -17 47 -5 0 -9 -4 -9 -10z"/>
<path d="M4255 2064 c-17 -13 -18 -16 -5 -24 11 -7 19 -5 28 7 24 33 11 43
-23 17z"/>
<path d="M4028 2025 c-6 -30 -2 -32 12 -6 6 11 6 22 1 25 -5 3 -11 -5 -13 -19z"/>
<path d="M3945 2020 c-3 -5 -2 -10 4 -10 5 0 13 5 16 10 3 6 2 10 -4 10 -5 0
-13 -4 -16 -10z"/>
<path d="M4062 2003 c4 -20 22 -21 26 -2 2 9 -4 16 -13 16 -9 0 -15 -7 -13
-14z"/>
<path d="M793 1935 c-9 -25 4 -29 17 -6 7 15 7 21 0 21 -6 0 -13 -7 -17 -15z"/>
<path d="M3861 1864 c0 -11 3 -14 6 -6 3 7 2 16 -1 19 -3 4 -6 -2 -5 -13z"/>
<path d="M3922 1850 c-6 -10 -8 -21 -3 -24 5 -3 11 4 14 16 8 29 4 32 -11 8z"/>
<path d="M3960 1850 c0 -5 5 -10 11 -10 5 0 7 5 4 10 -3 6 -8 10 -11 10 -2 0
-4 -4 -4 -10z"/>
<path d="M3984 1814 c3 -9 6 -18 6 -20 0 -3 5 -2 10 1 16 10 12 35 -6 35 -11
0 -14 -5 -10 -16z"/>
<path d="M3936 1802 c-9 -14 10 -42 28 -42 8 0 8 2 0 8 -7 4 -13 16 -16 27 -2
15 -6 17 -12 7z"/>
<path d="M552 1704 c4 -21 22 -23 26 -1 2 10 -3 17 -13 17 -10 0 -15 -6 -13
-16z"/>
<path d="M4000 1680 c0 -5 5 -10 10 -10 6 0 10 5 10 10 0 6 -4 10 -10 10 -5 0
-10 -4 -10 -10z"/>
<path d="M3697 1630 c-3 -12 -1 -18 5 -14 6 4 14 1 18 -6 5 -8 9 -7 13 5 4 9
3 13 -3 10 -6 -3 -10 1 -10 9 0 23 -17 20 -23 -4z"/>
<path d="M3596 1622 c-2 -4 -1 -14 3 -21 6 -10 10 -9 14 3 6 16 -8 32 -17 18z"/>
<path d="M3780 1622 c-19 -9 -22 -52 -3 -45 8 3 12 12 9 19 -3 7 3 18 12 23
19 12 5 13 -18 3z"/>
<path d="M4010 1623 c0 -4 5 -15 10 -23 8 -13 10 -13 10 2 0 9 -4 20 -10 23
-5 3 -10 3 -10 -2z"/>
<path d="M505 1609 c-3 -3 7 -17 20 -29 l25 -23 0 29 c0 23 -4 30 -21 30 -11
0 -22 -3 -24 -7z"/>
<path d="M4106 1596 c3 -8 12 -12 20 -9 21 8 17 23 -6 23 -13 0 -18 -5 -14
-14z"/>
<path d="M3840 1590 c0 -6 -7 -10 -16 -8 -10 2 -19 -3 -21 -10 -3 -8 1 -10 11
-6 12 5 15 2 10 -10 -3 -9 -1 -16 5 -16 6 0 11 9 11 20 0 11 5 20 10 20 6 0
10 5 10 10 0 6 -4 10 -10 10 -5 0 -10 -5 -10 -10z"/>
<path d="M3886 1585 c4 -8 11 -15 16 -15 6 0 5 6 -2 15 -7 8 -14 15 -16 15 -2
0 -1 -7 2 -15z"/>
<path d="M526 1532 c-3 -6 -1 -14 5 -17 15 -10 25 3 12 16 -7 7 -13 7 -17 1z"/>
<path d="M4217 1533 c-4 -3 -7 -17 -7 -30 0 -14 -6 -23 -15 -23 -8 0 -15 -4
-15 -10 0 -17 15 -11 40 15 14 15 18 25 11 25 -8 0 -11 6 -7 15 6 16 3 19 -7
8z"/>
<path d="M3718 1504 c-5 -4 -8 -16 -8 -28 0 -14 3 -17 11 -9 6 6 9 19 7 28 -1
9 -6 13 -10 9z"/>
<path d="M490 1474 c0 -8 5 -12 10 -9 6 4 8 11 5 16 -9 14 -15 11 -15 -7z"/>
<path d="M4230 1476 c0 -10 31 -76 36 -76 3 0 2 5 -2 11 -4 7 -7 25 -6 40 0
19 -4 29 -14 29 -8 0 -14 -2 -14 -4z"/>
<path d="M4307 1473 c-10 -9 -9 -23 2 -23 5 0 11 7 15 15 5 15 -5 20 -17 8z"/>
<path d="M3530 1444 c0 -8 5 -12 10 -9 6 4 8 11 5 16 -9 14 -15 11 -15 -7z"/>
<path d="M3627 1443 c-4 -3 -7 -11 -7 -17 0 -6 5 -5 12 2 6 6 9 14 7 17 -3 3
-9 2 -12 -2z"/>
<path d="M4216 1436 c21 -15 30 -14 19 3 -3 6 -14 11 -23 11 -13 0 -13 -2 4
-14z"/>
<path d="M3690 1426 c0 -9 5 -16 10 -16 6 0 10 4 10 9 0 6 -4 13 -10 16 -5 3
-10 -1 -10 -9z"/>
<path d="M510 1420 c0 -5 5 -10 11 -10 5 0 7 5 4 10 -3 6 -8 10 -11 10 -2 0
-4 -4 -4 -10z"/>
<path d="M7060 1426 c0 -3 9 -10 20 -16 11 -6 20 -8 20 -6 0 3 -9 10 -20 16
-11 6 -20 8 -20 6z"/>
<path d="M3406 1405 c-3 -8 -1 -15 4 -15 6 0 10 7 10 15 0 8 -2 15 -4 15 -2 0
-6 -7 -10 -15z"/>
<path d="M3667 1393 c-9 -9 -9 -53 1 -53 4 0 8 14 9 30 2 31 1 34 -10 23z"/>
<path d="M3467 1363 c-4 -3 -7 -11 -7 -17 0 -6 5 -5 12 2 6 6 9 14 7 17 -3 3
-9 2 -12 -2z"/>
<path d="M3527 1353 c-4 -3 -7 -11 -7 -17 0 -6 5 -5 12 2 6 6 9 14 7 17 -3 3
-9 2 -12 -2z"/>
<path d="M3375 1330 c-3 -5 -1 -10 4 -10 6 0 11 5 11 10 0 6 -2 10 -4 10 -3 0
-8 -4 -11 -10z"/>
<path d="M3449 1318 c-6 -66 -6 -77 1 -73 8 5 12 85 4 85 -2 0 -4 -6 -5 -12z"/>
<path d="M3505 1279 c-4 -6 -5 -12 -2 -15 2 -3 7 2 10 11 7 17 1 20 -8 4z"/>
<path d="M3406 1255 c-3 -9 0 -15 9 -15 16 0 20 16 6 24 -5 3 -11 -1 -15 -9z"/>
<path d="M3260 1230 c0 -5 4 -10 9 -10 6 0 13 5 16 10 3 6 -1 10 -9 10 -9 0
-16 -4 -16 -10z"/>
<path d="M2841 1194 c0 -11 3 -14 6 -6 3 7 2 16 -1 19 -3 4 -6 -2 -5 -13z"/>
<path d="M3087 1194 c-4 -4 -7 -14 -7 -23 0 -11 3 -12 11 -4 6 6 10 16 7 23
-2 6 -7 8 -11 4z"/>
<path d="M3256 1175 c4 -10 1 -21 -7 -25 -7 -5 -10 -13 -5 -17 9 -9 38 26 33
41 -2 5 -9 12 -15 14 -8 2 -10 -2 -6 -13z"/>
<path d="M3130 1150 c0 -5 5 -10 11 -10 5 0 7 5 4 10 -3 6 -8 10 -11 10 -2 0
-4 -4 -4 -10z"/>
<path d="M3002 1134 c-7 -8 -8 -14 -3 -14 10 0 25 19 20 25 -2 1 -10 -3 -17
-11z"/>
<path d="M3050 1125 c-11 -13 -10 -14 4 -9 9 3 16 10 16 15 0 13 -6 11 -20 -6z"/>
<path d="M3336 1131 c-4 -7 -5 -15 -2 -18 9 -9 19 4 14 18 -4 11 -6 11 -12 0z"/>
<path d="M643 1080 c-30 -12 -29 -17 2 -17 15 0 25 5 25 13 0 8 -1 14 -2 13
-2 0 -13 -4 -25 -9z"/>
<path d="M2890 1040 c0 -11 2 -20 5 -20 2 0 9 9 15 20 9 16 8 20 -5 20 -8 0
-15 -9 -15 -20z"/>
<path d="M2941 1036 c-10 -18 -10 -29 -2 -45 7 -11 13 -21 14 -21 1 0 2 16 3
36 0 20 7 40 15 45 12 7 11 9 -2 9 -9 0 -21 -11 -28 -24z"/>
<path d="M3048 1043 c7 -3 16 -2 19 1 4 3 -2 6 -13 5 -11 0 -14 -3 -6 -6z"/>
<path d="M635 1010 c-3 -5 3 -10 15 -10 12 0 18 5 15 10 -3 6 -10 10 -15 10
-5 0 -12 -4 -15 -10z"/>
<path d="M2887 995 c-12 -30 -8 -45 12 -45 28 0 32 12 12 39 -16 21 -19 21
-24 6z"/>
<path d="M2601 971 c-8 -5 -10 -14 -6 -21 6 -9 10 -8 17 4 12 21 7 28 -11 17z"/>
<path d="M2770 943 c0 -8 7 -13 18 -11 9 2 17 7 17 12 0 5 -8 10 -17 12 -10 1
-18 -4 -18 -13z"/>
<path d="M625 931 c-3 -5 -1 -12 5 -16 5 -3 10 1 10 9 0 18 -6 21 -15 7z"/>
<path d="M2480 930 c0 -5 4 -10 9 -10 6 0 13 5 16 10 3 6 -1 10 -9 10 -9 0
-16 -4 -16 -10z"/>
<path d="M660 920 c0 -5 7 -10 15 -10 8 0 15 5 15 10 0 6 -7 10 -15 10 -8 0
-15 -4 -15 -10z"/>
<path d="M2572 895 c-16 -35 -15 -37 8 -23 11 7 20 21 20 30 0 26 -15 22 -28
-7z"/>
<path d="M2465 900 c-3 -5 -1 -10 4 -10 6 0 11 5 11 10 0 6 -2 10 -4 10 -3 0
-8 -4 -11 -10z"/>
<path d="M2429 895 c0 -6 -2 -20 -3 -32 -2 -13 1 -23 5 -23 12 0 19 44 9 54
-6 6 -10 6 -11 1z"/>
<path d="M620 875 c0 -8 7 -15 15 -15 8 0 15 7 15 15 0 8 -7 15 -15 15 -8 0
-15 -7 -15 -15z"/>
<path d="M720 865 c-8 -9 -8 -15 -2 -15 12 0 26 19 19 26 -2 2 -10 -2 -17 -11z"/>
<path d="M2645 870 c-3 -5 -1 -10 4 -10 6 0 11 5 11 10 0 6 -2 10 -4 10 -3 0
-8 -4 -11 -10z"/>
<path d="M2503 845 c-10 -22 -9 -25 8 -25 25 0 44 36 23 44 -9 3 -16 6 -17 6
-1 0 -7 -11 -14 -25z"/>
<path d="M2217 823 c-10 -9 -8 -33 2 -33 5 0 11 9 14 20 5 20 -3 26 -16 13z"/>
<path d="M2310 809 c0 -5 5 -7 10 -4 6 3 10 8 10 11 0 2 -4 4 -10 4 -5 0 -10
-5 -10 -11z"/>
<path d="M2197 742 c-20 -22 -21 -32 -4 -32 8 0 19 11 25 25 14 29 2 33 -21 7z"/>
<path d="M2271 753 c0 -6 -4 -20 -7 -30 -5 -14 -4 -15 5 -7 7 7 11 20 8 30 -3
11 -5 14 -6 7z"/>
<path d="M1887 743 c-4 -3 -7 -11 -7 -17 0 -6 5 -5 12 2 6 6 9 14 7 17 -3 3
-9 2 -12 -2z"/>
<path d="M891 726 c-7 -8 -8 -17 -3 -20 6 -3 13 1 16 10 9 23 2 28 -13 10z"/>
<path d="M1120 730 c0 -5 5 -10 10 -10 6 0 10 5 10 10 0 6 -4 10 -10 10 -5 0
-10 -4 -10 -10z"/>
<path d="M1800 699 c0 -5 5 -7 10 -4 6 3 10 8 10 11 0 2 -4 4 -10 4 -5 0 -10
-5 -10 -11z"/>
<path d="M1975 700 c-3 -5 -2 -10 4 -10 5 0 13 5 16 10 3 6 2 10 -4 10 -5 0
-13 -4 -16 -10z"/>
<path d="M810 672 c0 -4 6 -20 13 -35 9 -22 17 -26 35 -22 12 3 22 1 22 -6 0
-6 7 -4 15 5 16 16 20 36 7 36 -4 0 -13 -5 -20 -12 -9 -9 -17 -5 -36 15 -26
28 -36 33 -36 19z"/>
<path d="M1845 669 c-4 -6 -5 -12 -2 -15 2 -3 7 2 10 11 7 17 1 20 -8 4z"/>
<path d="M1136 631 c-5 -8 -2 -20 8 -29 17 -17 19 -9 7 22 -6 15 -10 16 -15 7z"/>
<path d="M1855 630 c-3 -5 -1 -10 4 -10 6 0 11 5 11 10 0 6 -2 10 -4 10 -3 0
-8 -4 -11 -10z"/>
<path d="M1040 611 c0 -12 5 -21 10 -21 6 0 10 6 10 14 0 8 -4 18 -10 21 -5 3
-10 -3 -10 -14z"/>
<path d="M1195 621 c-3 -5 -1 -12 5 -16 5 -3 10 1 10 9 0 18 -6 21 -15 7z"/>
<path d="M920 596 c0 -9 -6 -16 -12 -16 -7 0 -19 -4 -26 -9 -11 -7 -12 -12 -1
-29 10 -17 10 -23 0 -36 -8 -9 -17 -16 -21 -16 -12 0 -20 44 -10 54 21 21 11
37 -17 30 -15 -4 -33 -7 -40 -7 -7 0 -13 -6 -13 -14 0 -7 5 -13 10 -13 6 0 10
-6 10 -14 0 -8 7 -16 15 -20 8 -3 15 -15 15 -26 0 -15 7 -20 25 -20 14 0 25
-3 25 -8 0 -4 9 -13 21 -20 19 -12 20 -11 14 8 -4 12 -1 27 6 36 9 11 9 20 0
40 -14 32 -14 34 4 34 8 0 15 -4 15 -10 0 -5 7 -10 15 -10 18 0 18 0 -1 38
-18 37 -34 50 -34 28z"/>
<path d="M1076 563 c8 -34 46 -105 52 -98 7 7 -41 125 -51 125 -4 0 -4 -12 -1
-27z"/>
<path d="M1310 580 c-8 -5 -11 -12 -7 -16 4 -4 13 -2 19 4 15 15 7 24 -12 12z"/>
<path d="M1382 578 c-14 -14 -16 -28 -3 -28 9 0 24 30 18 36 -2 2 -9 -2 -15
-8z"/>
<path d="M1710 580 c0 -5 5 -10 10 -10 6 0 10 5 10 10 0 6 -4 10 -10 10 -5 0
-10 -4 -10 -10z"/>
<path d="M1470 549 c0 -11 4 -18 10 -14 5 3 7 12 3 20 -7 21 -13 19 -13 -6z"/>
<path d="M1137 543 c-4 -3 -7 -11 -7 -17 0 -6 5 -5 12 2 6 6 9 14 7 17 -3 3
-9 2 -12 -2z"/>
<path d="M1620 531 c-5 -11 -7 -27 -3 -37 6 -16 7 -16 20 2 15 21 17 54 3 54
-5 0 -14 -9 -20 -19z"/>
<path d="M1525 500 c-3 -5 -1 -10 4 -10 6 0 11 5 11 10 0 6 -2 10 -4 10 -3 0
-8 -4 -11 -10z"/>
<path d="M1660 476 c0 -9 5 -16 10 -16 6 0 10 4 10 9 0 6 -4 13 -10 16 -5 3
-10 -1 -10 -9z"/>
</g>
</svg>
